<?xml version="1.0" encoding="UTF-8" standalone="no"?>
<!-- Created with Inkscape (http://www.inkscape.org/) -->

<svg
   xmlns:dc="http://purl.org/dc/elements/1.1/"
   xmlns:cc="http://creativecommons.org/ns#"
   xmlns:rdf="http://www.w3.org/1999/02/22-rdf-syntax-ns#"
   xmlns:svg="http://www.w3.org/2000/svg"
   xmlns="http://www.w3.org/2000/svg"
   xmlns:xlink="http://www.w3.org/1999/xlink"
   xmlns:sodipodi="http://sodipodi.sourceforge.net/DTD/sodipodi-0.dtd"
   xmlns:inkscape="http://www.inkscape.org/namespaces/inkscape"
   width="990"
   height="765"
   id="svg2"
   version="1.1"
   inkscape:version="0.48.0 r9654"
   sodipodi:docname="cheese_snow.svg">
  <title
     id="title5496">Cheese Snow Overlay</title>
  <defs
     id="defs4"><inkscape:perspective
   id="perspective10"
   inkscape:persp3d-origin="372.04724 : 350.78739 : 1"
   inkscape:vp_z="744.09448 : 526.18109 : 1"
   inkscape:vp_y="0 : 1000 : 0"
   inkscape:vp_x="0 : 526.18109 : 1"
   sodipodi:type="inkscape:persp3d" />
<radialGradient
   xlink:href="#linearGradient4930"
   r="21.465179"
   inkscape:collect="always"
   id="radialGradient8071"
   gradientUnits="userSpaceOnUse"
   gradientTransform="matrix(0.887174,0,0,0.741629,-38.9171,-382.509)"
   fy="835.95514"
   fx="406.02457"
   cy="851.52258"
   cx="405.73886" />
<radialGradient
   xlink:href="#linearGradient4930"
   r="21.465179"
   inkscape:collect="always"
   id="radialGradient8070"
   gradientUnits="userSpaceOnUse"
   gradientTransform="matrix(1.09373,0,0,0.914301,-227.189,-539.652)"
   fy="835.95514"
   fx="406.02457"
   cy="851.52258"
   cx="405.73886" />
<radialGradient
   xlink:href="#linearGradient4930"
   r="27.894432"
   inkscape:collect="always"
   id="radialGradient8069"
   gradientUnits="userSpaceOnUse"
   gradientTransform="matrix(1.58985,0,0,1.01486,-205.68,-248.096)"
   fy="1138.5897"
   fx="613.52435"
   cy="1156.0232"
   cx="612.00226" />
<radialGradient
   xlink:href="#linearGradient4930"
   r="21.465179"
   inkscape:collect="always"
   id="radialGradient8063"
   gradientUnits="userSpaceOnUse"
   gradientTransform="matrix(1.09373, 1.22674e-16, -2.11789e-16, 0.914301, -227.189, -539.652)"
   fy="835.95514"
   fx="406.02457"
   cy="851.52258"
   cx="405.73886" />
<radialGradient
   xlink:href="#linearGradient4930"
   r="21.465179"
   inkscape:collect="always"
   id="radialGradient8062"
   gradientUnits="userSpaceOnUse"
   gradientTransform="matrix(0.887174, 1.31378e-16, -2.40934e-16, 0.741629, -38.9171, -382.509)"
   fy="835.95514"
   fx="406.02457"
   cy="851.52258"
   cx="405.73886" />
<radialGradient
   xlink:href="#linearGradient4930"
   r="21.465179"
   inkscape:collect="always"
   id="radialGradient8057"
   gradientUnits="userSpaceOnUse"
   gradientTransform="matrix(0.887174, 1.06285e-16, -2.26581e-16, 0.741629, 188.313, 159.138)"
   fy="835.95514"
   fx="406.02457"
   cy="851.52258"
   cx="405.73886" />
<radialGradient
   xlink:href="#linearGradient4930"
   r="21.465179"
   inkscape:collect="always"
   id="radialGradient8056"
   gradientUnits="userSpaceOnUse"
   gradientTransform="matrix(1.09373, 6.08033e-17, -1.764e-16, 0.914301, 0.0410719, 1.99518)"
   fy="835.95514"
   fx="406.02457"
   cy="851.52258"
   cx="405.73886" />
<radialGradient
   xlink:href="#linearGradient4930"
   r="27.894432"
   inkscape:collect="always"
   id="radialGradient8055"
   gradientUnits="userSpaceOnUse"
   gradientTransform="matrix(1.58985, 0, 3.50217e-16, 1.01486, -205.68, -248.096)"
   fy="1138.5897"
   fx="613.52435"
   cy="1156.0232"
   cx="612.00226" />

<radialGradient
   xlink:href="#linearGradient4930"
   r="21.465179"
   inkscape:collect="always"
   id="radialGradient8049"
   gradientUnits="userSpaceOnUse"
   gradientTransform="matrix(0.887174, 8.95484e-17, -1.84026e-16, 0.741629, 188.313, 159.138)"
   fy="835.95514"
   fx="406.02457"
   cy="851.52258"
   cx="405.73886" />
<radialGradient
   xlink:href="#linearGradient4930"
   r="21.465179"
   inkscape:collect="always"
   id="radialGradient7426"
   gradientUnits="userSpaceOnUse"
   gradientTransform="matrix(1.09373, 4.01699e-17, -1.23936e-16, 0.914301, 0.0410719, 1.99518)"
   fy="835.95514"
   fx="406.02457"
   cy="851.52258"
   cx="405.73886" />
<radialGradient
   xlink:href="#linearGradient4930"
   r="27.894432"
   inkscape:collect="always"
   id="radialGradient4936"
   gradientUnits="userSpaceOnUse"
   gradientTransform="matrix(1.58985, 0, 3.21114e-16, 1.01486, -205.68, -248.096)"
   fy="1138.5897"
   fx="613.52435"
   cy="1156.0232"
   cx="612.00226" />
<linearGradient
   id="linearGradient4297">
  <stop
     style="stop-color:#ffffff;stop-opacity:1.0000000;"
     offset="0.0000000"
     id="stop4298" />
  <stop
     style="stop-color:#ffffff;stop-opacity:0.0000000;"
     offset="1.0000000"
     id="stop4299" />
</linearGradient>
<linearGradient
   id="linearGradient4304">
  <stop
     style="stop-color:#ffffff;stop-opacity:1.0000000;"
     offset="0.0000000"
     id="stop4305" />
  <stop
     style="stop-color:#ffffff;stop-opacity:0.0000000;"
     offset="1.0000000"
     id="stop4306" />
</linearGradient>
<linearGradient
   id="linearGradient4930">
  <stop
     style="stop-color:#ffffff;stop-opacity:1.0000000;"
     offset="0.0000000"
     id="stop4931" />

  <stop
     style="stop-color:#ffffff;stop-opacity:0.0000000;"
     offset="1.0000000"
     id="stop4932" />
</linearGradient>
<radialGradient
   inkscape:collect="always"
   xlink:href="#linearGradient4930"
   id="radialGradient5111"
   gradientUnits="userSpaceOnUse"
   gradientTransform="matrix(1.0892195,0,0,0.88943209,-194.69793,-696.09754)"
   cx="405.73886"
   cy="851.52258"
   fx="406.02457"
   fy="835.95514"
   r="21.465179" />
<radialGradient
   inkscape:collect="always"
   xlink:href="#linearGradient4930"
   id="radialGradient5114"
   gradientUnits="userSpaceOnUse"
   gradientTransform="matrix(1.3428167,0,0,1.0965168,-425.84698,-884.55838)"
   cx="405.73886"
   cy="851.52258"
   fx="406.02457"
   fy="835.95514"
   r="21.465179" />
<radialGradient
   inkscape:collect="always"
   xlink:href="#linearGradient4930"
   id="radialGradient5117"
   gradientUnits="userSpaceOnUse"
   gradientTransform="matrix(1.9529717,0,0,1.223936,-906.71524,-1243.9732)"
   cx="612.00226"
   cy="1156.0232"
   fx="613.52435"
   fy="1138.5897"
   r="27.894432" />
<linearGradient
   inkscape:collect="always"
   xlink:href="#linearGradient4161"
   id="linearGradient1576"
   gradientUnits="userSpaceOnUse"
   x1="674.64966"
   y1="874.65875"
   x2="674.64966"
   y2="954.76569" />
<linearGradient
   inkscape:collect="always"
   xlink:href="#linearGradient3211"
   id="linearGradient1574"
   gradientUnits="userSpaceOnUse"
   x1="440.10486"
   y1="613.38153"
   x2="440.10486"
   y2="693.25641" />
<linearGradient
   inkscape:collect="always"
   xlink:href="#linearGradient9611"
   id="linearGradient1570"
   gradientUnits="userSpaceOnUse"
   x1="208.62442"
   y1="119.7196"
   x2="208.62442"
   y2="163.79573" />
<linearGradient
   inkscape:collect="always"
   xlink:href="#linearGradient5079"
   id="linearGradient1568"
   gradientUnits="userSpaceOnUse"
   gradientTransform="translate(57.00000,-24.00000)"
   x1="547.49896"
   y1="146.65633"
   x2="555.45441"
   y2="143.83321" />
<linearGradient
   inkscape:collect="always"
   xlink:href="#linearGradient5079"
   id="linearGradient1566"
   gradientUnits="userSpaceOnUse"
   gradientTransform="translate(57.00000,-24.00000)"
   x1="547.49896"
   y1="146.65633"
   x2="555.45441"
   y2="143.83321" />
<linearGradient
   inkscape:collect="always"
   xlink:href="#linearGradient5079"
   id="linearGradient1564"
   gradientUnits="userSpaceOnUse"
   gradientTransform="translate(57.00000,-24.00000)"
   x1="547.49896"
   y1="146.65633"
   x2="555.45441"
   y2="143.83321" />
<linearGradient
   inkscape:collect="always"
   xlink:href="#linearGradient5079"
   id="linearGradient1562"
   gradientUnits="userSpaceOnUse"
   x1="547.49896"
   y1="146.65633"
   x2="555.45441"
   y2="143.83321" />
<linearGradient
   inkscape:collect="always"
   xlink:href="#linearGradient5079"
   id="linearGradient1560"
   gradientUnits="userSpaceOnUse"
   gradientTransform="translate(57.00000,-24.00000)"
   x1="547.49896"
   y1="146.65633"
   x2="555.45441"
   y2="143.83321" />
<linearGradient
   inkscape:collect="always"
   xlink:href="#linearGradient5079"
   id="linearGradient1558"
   gradientUnits="userSpaceOnUse"
   gradientTransform="translate(57.00000,-24.00000)"
   x1="547.49896"
   y1="146.65633"
   x2="555.45441"
   y2="143.83321" />
<linearGradient
   inkscape:collect="always"
   xlink:href="#linearGradient5079"
   id="linearGradient1556"
   gradientUnits="userSpaceOnUse"
   gradientTransform="translate(57.00000,-24.00000)"
   x1="547.49896"
   y1="146.65633"
   x2="555.45441"
   y2="143.83321" />
<linearGradient
   inkscape:collect="always"
   xlink:href="#linearGradient5079"
   id="linearGradient1554"
   gradientUnits="userSpaceOnUse"
   x1="547.49896"
   y1="146.65633"
   x2="555.45441"
   y2="143.83321" />

<linearGradient
   inkscape:collect="always"
   id="linearGradient5079">
  <stop
     style="stop-color:white;stop-opacity:1;"
     offset="0"
     id="stop5081" />
  <stop
     style="stop-color:white;stop-opacity:0"
     offset="1"
     id="stop5083" />
</linearGradient>
<linearGradient
   id="linearGradient4161">
  <stop
     style="stop-color:#ffc800;stop-opacity:1;"
     offset="0"
     id="stop4163" />
  <stop
     style="stop-color:#ffc100;stop-opacity:0;"
     offset="1"
     id="stop4165" />
</linearGradient>
<linearGradient
   id="linearGradient3211">
  <stop
     style="stop-color:#b4b4b4;stop-opacity:1;"
     offset="0"
     id="stop3213" />
  <stop
     style="stop-color:#f0f0f0;stop-opacity:0;"
     offset="1"
     id="stop3215" />

</linearGradient>
<linearGradient
   inkscape:collect="always"
   id="linearGradient9611">
  <stop
     style="stop-color:#ffc800;stop-opacity:1;"
     offset="0"
     id="stop9613" />
  <stop
     style="stop-color:#ffc800;stop-opacity:0;"
     offset="1"
     id="stop9615" />
</linearGradient>
<linearGradient
   inkscape:collect="always"
   xlink:href="#linearGradient5079"
   id="linearGradient5843"
   gradientUnits="userSpaceOnUse"
   x1="847.01324"
   y1="23.273985"
   x2="847.01324"
   y2="64.715645" />

 
  
  
  
 
   
   
   
   
   
   
   
   
   
   
   
   
  <clipPath
   id="id0">
    <rect
   id="rect9"
   y="4.74123"
   x="3.54339"
   height="1.51754"
   width="1.41321" />

   </clipPath>

   <style
   id="style6"
   type="text/css" />

  <linearGradient
   id="linearGradient3637-9">
  <stop
     id="stop3639-9"
     offset="0"
     style="stop-color:#94deec;stop-opacity:1;" />
  <stop
     style="stop-color:#7eeefe;stop-opacity:1;"
     offset="0"
     id="stop4438-1" />
  <stop
     style="stop-color:#3f98cb;stop-opacity:1;"
     offset="0.625"
     id="stop4436-3" />
  <stop
     id="stop3641-4"
     offset="1"
     style="stop-color:#49bacd;stop-opacity:1;" />
</linearGradient>
<radialGradient
   r="267.21201"
   fy="487.3125"
   fx="388.40625"
   cy="487.3125"
   cx="388.40625"
   gradientTransform="matrix(0.11583039,0,0,0.10097024,-12.727388,-16.889224)"
   gradientUnits="userSpaceOnUse"
   id="radialGradient3924-0"
   xlink:href="#linearGradient3637-9"
   inkscape:collect="always" />
<inkscape:perspective
   sodipodi:type="inkscape:persp3d"
   inkscape:vp_x="0 : 0.5 : 1"
   inkscape:vp_y="0 : 1000 : 0"
   inkscape:vp_z="1 : 0.5 : 1"
   inkscape:persp3d-origin="0.5 : 0.33333333 : 1"
   id="perspective4448" />
<linearGradient
   id="linearGradient3637">

  <stop
     id="stop3639"
     offset="0"
     style="stop-color:#94deec;stop-opacity:1;" />
  <stop
     style="stop-color:#7eeefe;stop-opacity:1;"
     offset="0"
     id="stop4438" />
  <stop
     style="stop-color:#3f98cb;stop-opacity:1;"
     offset="0.625"
     id="stop4436" />
  <stop
     id="stop3641"
     offset="1"
     style="stop-color:#49bacd;stop-opacity:1;" />
</linearGradient>
<radialGradient
   r="267.21201"
   fy="487.3125"
   fx="388.40625"
   cy="487.3125"
   cx="388.40625"
   gradientTransform="matrix(1,0,0,0.87170767,-6.0609152,77.670745)"
   gradientUnits="userSpaceOnUse"
   id="radialGradient3805"
   xlink:href="#linearGradient3637"
   inkscape:collect="always" />
<inkscape:perspective
   sodipodi:type="inkscape:persp3d"
   inkscape:vp_x="0 : 0.5 : 1"
   inkscape:vp_y="0 : 1000 : 0"
   inkscape:vp_z="1 : 0.5 : 1"
   inkscape:persp3d-origin="0.5 : 0.33333333 : 1"
   id="perspective3880" />
<inkscape:perspective
   id="perspective3899"
   inkscape:persp3d-origin="32 : 21.333333 : 1"
   inkscape:vp_z="64 : 32 : 1"
   inkscape:vp_y="0 : 1000 : 0"
   inkscape:vp_x="0 : 32 : 1"
   sodipodi:type="inkscape:persp3d" />
<linearGradient
   gradientTransform="matrix(0.2214351,-0.9751751,0.9751751,0.2214351,-6.1293505,622.84166)"
   gradientUnits="userSpaceOnUse"
   xlink:href="#linearGradient5090"
   id="linearGradient5096"
   y2="315.25943"
   x2="551.95465"
   y1="315.25943"
   x1="222.04323" />
<radialGradient
   gradientTransform="matrix(0.2214351,-0.9751751,0.9046309,0.2054165,16.110371,627.89168)"
   gradientUnits="userSpaceOnUse"
   xlink:href="#linearGradient4113"
   id="radialGradient4119"
   fy="315.25943"
   fx="386.99893"
   r="164.9557"
   cy="315.25943"
   cx="386.99893" />
<linearGradient
   id="linearGradient4113">
  <stop
     id="stop4115"
     offset="0"
     style="stop-color:#cdf2ff;stop-opacity:1" />

  <stop
     id="stop4117"
     offset="1"
     style="stop-color:#eaffff;stop-opacity:1" />
</linearGradient>
<linearGradient
   id="linearGradient5090">
  <stop
     id="stop5092"
     offset="0"
     style="stop-color:#3c3c3c;stop-opacity:1" />
  <stop
     id="stop5094"
     offset="1"
     style="stop-color:#a6a6a6;stop-opacity:1" />
</linearGradient>
</defs>
  <sodipodi:namedview
     id="base"
     pagecolor="#ededed"
     bordercolor="#666666"
     borderopacity="1.0"
     inkscape:pageopacity="0"
     inkscape:pageshadow="2"
     inkscape:zoom="0.51505228"
     inkscape:cx="460.76662"
     inkscape:cy="422.57437"
     inkscape:document-units="px"
     inkscape:current-layer="layer1"
     showgrid="false"
     inkscape:showpageshadow="true"
     inkscape:window-width="1288"
     inkscape:window-height="913"
     inkscape:window-x="164"
     inkscape:window-y="82"
     inkscape:window-maximized="0" />
  <metadata
     id="metadata7">
    <rdf:RDF>
      <cc:Work
         rdf:about="">

        <dc:format>image/svg+xml</dc:format>
        <dc:type
           rdf:resource="http://purl.org/dc/dcmitype/StillImage" />
        <dc:title>Cheese Snow Overlay</dc:title>
        <dc:creator>
          <cc:Agent>
            <dc:title>Peter Shinners</dc:title>
          </cc:Agent>

        </dc:creator>
        <dc:contributor>
          <cc:Agent>
            <dc:title>openclipart.org, Lakeside, Bocian, Erik</dc:title>
          </cc:Agent>
        </dc:contributor>
        <cc:license
           rdf:resource="http://creativecommons.org/licenses/publicdomain/" />
      </cc:Work>

      <cc:License
         rdf:about="http://creativecommons.org/licenses/publicdomain/">
        <cc:permits
           rdf:resource="http://creativecommons.org/ns#Reproduction" />
        <cc:permits
           rdf:resource="http://creativecommons.org/ns#Distribution" />
        <cc:permits
           rdf:resource="http://creativecommons.org/ns#DerivativeWorks" />
      </cc:License>
    </rdf:RDF>
  </metadata>
  <g
     inkscape:label="Layer 1"
     inkscape:groupmode="layer"
     id="layer1"
     transform="translate(0,-287.36218)">
    <g
       style="display:inline"
       id="layer1-4"
       inkscape:label="sun"
       transform="matrix(2.2141888,0,0,-1.6508495,-24.152644,443.78416)" />

    <g
       style="display:inline"
       inkscape:label="moon"
       id="layer2"
       transform="matrix(2.2141888,0,0,-1.6508495,-24.152644,443.78416)" />
    <path
       sodipodi:type="inkscape:offset"
       inkscape:radius="-3.2109792"
       inkscape:original="M 843.75 20.0625 C 826.16698 20.378714 810.74739 30.428934 808.875 46.84375 C 784.16561 23.664485 756.23503 55.812109 772.03125 75.96875 L 926.09375 75.96875 C 945.19841 44.702373 906.60376 30.086636 891.71875 51.78125 C 881.10023 29.188348 861.33302 19.746286 843.75 20.0625 z "
       style="fill:url(#linearGradient5843);fill-opacity:1;fill-rule:evenodd;stroke:none"
       id="path2288"
       d="m 843.8125,23.28125 c -16.39379,0.294827 -30.08585,9.348302 -31.75,23.9375 a 3.2113003,3.2113003 0 0 1 -5.375,1.96875 C 801.00041,43.852581 795.46333,41.94125 790.5,42 c -4.96333,0.05875 -9.50014,2.159785 -13.03125,5.5 -6.73594,6.371796 -9.3666,16.750471 -3.6875,25.25 l 150.375,0 c 3.65664,-6.58017 4.48011,-11.992488 3.59375,-16.125 -0.95682,-4.461039 -3.75032,-7.737419 -7.59375,-9.78125 -7.68687,-4.087663 -19.26151,-2.752396 -25.78125,6.75 a 3.2113003,3.2113003 0 0 1 -5.5625,-0.4375 c -10.11249,-21.516225 -28.60921,-30.169773 -45,-29.875 z"
       transform="translate(-591.6695,29.758539)" />
    <g
       style="display:inline"
       inkscape:label="thunder"
       id="layer4"
       transform="matrix(2.2141888,0,0,-1.6508495,-24.152644,443.78416)" />
    <g
       inkscape:label="rain"
       id="layer5"
       transform="matrix(2.2141888,0,0,-1.6508495,-24.152644,443.78416)" />
    <g
       inkscape:label="rainfall"
       id="layer6"
       transform="matrix(2.2141888,0,0,-1.6508495,-24.152644,443.78416)" />
    <g
       style="display:inline"
       inkscape:label="snow"
       id="layer7"
       transform="matrix(2.2141888,0,0,-1.6508495,-24.152644,443.78416)" />
    <g
       style="display:inline"
       inkscape:label="sowfall"
       id="layer8"
       transform="matrix(2.2141888,0,0,-1.6508495,-24.152644,443.78416)" />
    <path
       style="fill:#ebebeb;fill-opacity:1;fill-rule:evenodd;stroke:#73bebe;stroke-width:3;stroke-linecap:butt;stroke-linejoin:miter;stroke-miterlimit:4;stroke-opacity:1;stroke-dasharray:none"
       d="m 2.3441858,289.17758 0,39.46875 c 17.8222752,6.66548 40.3247252,4.83404 61.7808682,-12.625 6.006507,45.67638 72.104406,66.87969 128.514236,45.4375 24.5523,18.70026 58.5078,24.58246 77.61007,3.6875 56.83686,90.7594 211.64917,75.81601 221.67138,9.875 37.11593,26.13073 76.59217,3.54754 96.60509,-28.4375 20.24851,2.69277 42.66417,0.33638 63.66157,-7.96875 18.80193,10.99217 45.37931,12.02465 70.5261,-8.4375 8.67134,65.94101 142.62375,80.8844 191.79967,-9.875 18.90669,23.90285 54.32819,25.8561 75.16515,12.375 l 0,-43.5 -987.3341342,0 z"
       id="path5845"
       inkscape:connector-curvature="0" />
    <g
       id="g5956"
       transform="matrix(0.95176261,0.30683536,-0.30683536,0.95176261,179.58064,-12.417556)">

      <path
         d="m 30.368446,483.89716 2.28821,7.73191 3.723294,2.0297 4.576425,-8.40435 5.740326,3.1164 -4.576424,8.417 6.347721,3.45212 4.731808,-8.68868 6.192333,3.37491 -4.731312,8.68868 7.188066,3.90462 4.796346,-8.8309 4.680058,2.54722 -4.796349,8.83091 3.723294,2.01703 1.615905,5.89621 -5.895209,1.96528 -3.723294,-2.01703 -4.628177,8.50735 -4.680059,-2.54674 4.628181,-8.50784 -7.17541,-3.90512 -4.770404,8.74044 -6.192835,-3.36177 4.75775,-8.75321 -6.347718,-3.45212 -4.58958,8.43016 -5.740326,-3.11639 4.58958,-8.44295 -3.671541,-1.9909 -7.821847,2.3014 -7.2912,-15.17949 17.052388,-2.75385 z"
         style="fill:#f5f5f5;fill-opacity:1;stroke:#44bebe;stroke-width:2;stroke-miterlimit:4;stroke-opacity:1;stroke-dasharray:none"
         id="path15"
         inkscape:connector-curvature="0" />
      <path
         d="m 106.89082,453.00747 -5.71389,5.70223 0,4.24071 9.57991,0 0,6.52941 -9.57991,0 0,7.24094 9.89018,0 0,7.04646 -9.89018,0 0,8.18491 10.04507,0 0,5.32692 -10.04507,0 0,4.22805 -4.395603,4.24071 -4.55098,-4.24071 0,-4.22805 -9.68305,0 0,-5.32692 9.68305,0 0,-8.18491 -9.95472,0 0,-7.04646 9.95472,0 0,-7.24094 -9.59257,0 0,-6.52941 9.59257,0 0,-4.1763 -5.76585,-5.76664 9.85109,-13.66622 10.575233,13.66622 z"
         style="fill:#f5f5f5;fill-opacity:1;stroke:#44bebe;stroke-width:2;stroke-miterlimit:4;stroke-opacity:1;stroke-dasharray:none"
         id="1"
         sodipodi:nodetypes="ccccccccccccccccccccccccccccccccc"
         inkscape:connector-curvature="0" />
      <path
         d="m 174.77763,502.77426 -7.8219,-2.30137 -3.67154,1.99109 4.58958,8.43016 -5.74032,3.12868 -4.58958,-8.44294 -6.34772,3.46527 4.75775,8.75322 -6.19283,3.36176 -4.75725,-8.75321 -7.18807,3.91777 4.62818,8.50735 -4.68006,2.54723 -4.62818,-8.52051 -3.72379,2.02969 -5.89521,-1.97793 1.62906,-5.88306 3.7233,-2.03018 -4.80901,-8.81763 4.68006,-2.54723 4.79634,8.83078 7.18807,-3.91777 -4.73181,-8.68868 6.20549,-3.36176 4.71865,8.68868 6.36088,-3.46527 -4.57642,-8.40422 5.72717,-3.12869 4.57642,8.41701 3.72329,-2.0297 2.28871,-7.74506 17.05244,2.76702 -7.2917,15.1795 z"
         style="fill:#f5f5f5;fill-opacity:1;stroke:#44bebe;stroke-width:2;stroke-miterlimit:4;stroke-opacity:1;stroke-dasharray:none"
         id="12"
         sodipodi:nodetypes="ccccccccccccccccccccccccccccccccc"
         inkscape:connector-curvature="0" />
      <path
         d="m 167.04683,580.5973 -1.93934,-7.84821 -3.62016,-2.18508 -4.95123,8.19708 -5.5981,-3.37442 4.95173,-8.19757 -6.19283,-3.74973 -5.10662,8.46925 -6.03744,-3.6461 5.10662,-8.46925 -6.99408,-4.22805 -5.19747,8.59821 -4.55049,-2.75388 5.18431,-8.5982 -3.62016,-2.18507 -1.35738,-5.96075 5.98606,-1.70676 3.61966,2.19836 5.01615,-8.30121 4.55049,2.75437 -5.003,8.30071 6.99408,4.22805 5.15838,-8.53379 6.03744,3.64659 -5.15837,8.5333 6.19283,3.73694 4.96439,-8.21085 5.58494,3.37491 -4.96439,8.21024 3.58106,2.17242 7.92491,-1.96578 6.59346,15.50293 -17.15545,1.99134 z"
         style="fill:#f5f5f5;fill-opacity:1;stroke:#44bebe;stroke-width:2;stroke-miterlimit:4;stroke-opacity:1;stroke-dasharray:none"
         id="123"
         sodipodi:nodetypes="ccccccccccccccccccccccccccccccccc"
         inkscape:connector-curvature="0" />
      <path
         d="m 89.761187,610.5425 5.76577,-5.76675 0,-4.1763 -9.59257,0 0,-6.52942 9.59257,0 0,-7.24093 -9.95473,0 0,-7.04646 9.95473,0 0,-8.18442 -9.68305,0 0,-5.32741 9.68305,0 0,-4.24071 4.550973,-4.22805 4.3956,4.22805 0,4.24071 10.04507,0 0,5.32741 -10.04507,0 0,8.18442 9.89019,0 0,7.04646 -9.89019,0 0,7.24093 9.57991,0 0,6.52942 -9.57991,0 0,4.24071 5.71402,5.70234 -10.575283,13.66673 -9.85108,-13.66673 z"
         style="fill:#f5f5f5;fill-opacity:1;stroke:#44bebe;stroke-width:2;stroke-miterlimit:4;stroke-opacity:1;stroke-dasharray:none"
         id="1234"
         sodipodi:nodetypes="ccccccccccccccccccccccccccccccccc"
         inkscape:connector-curvature="0" />
      <path
         d="m 23.064586,566.94398 8.093073,1.09961 3.322669,-2.52129 -5.804864,-7.65472 5.196972,-3.94321 5.804863,7.64106 5.766268,-4.37027 -6.024666,-7.93868 5.610884,-4.26665 6.02466,7.93868 6.515761,-4.95223 -5.869272,-7.71876 4.240211,-3.21953 5.869272,7.71876 3.374422,-2.57255 6.127798,1.0599 -0.723561,6.06425 -3.374421,2.57304 6.076042,8.0031 -4.227551,3.21953 -6.089198,-8.00309 -6.50261,4.95173 5.985568,7.87464 -5.623539,4.26665 -5.986063,-7.87415 -5.752986,4.37028 5.792084,7.62841 -5.197473,3.95637 -5.791583,-7.62841 -3.374421,2.55989 -1.098372,8.00359 -17.272233,-0.15513 4.912266,-16.11082 z"
         style="fill:#f5f5f5;fill-opacity:1;stroke:#44bebe;stroke-width:2;stroke-miterlimit:4;stroke-opacity:1;stroke-dasharray:none"
         id="12345"
         sodipodi:nodetypes="ccccccccccccccccccccccccccccccccc"
         inkscape:connector-curvature="0" />
      <path
         id="123456"
         d="m 74.477227,498.61895 1.86673,21.36196 19.51028,10.34226 0,-22.55124 -21.37701,-9.15298 z m 45.358403,0.31614 -21.361953,9.15298 0,22.56629 20.789893,-11.65198 0.57206,-20.06729 z m 0.42152,21.73831 -19.49523,11.53155 21.8738,11.01969 17.11666,-13.39826 -19.49523,-9.15298 z m -45.253023,0.49679 -19.510283,11.03476 9.785251,4.71197 12.254142,6.30772 18.321,-11.01969 -20.85011,-11.03476 z m 23.89107,12.20899 0.51184,20.85011 24.402913,11.53154 -2.36351,-20.68452 -22.551243,-11.69713 z m -3.04096,1.18928 -18.321,10.50785 -1.18928,24.43302 20.68451,-15.28004 -0.69249,-14.72304 -0.48174,-4.93779 z"
         style="fill:#f5f5f5;fill-opacity:1;stroke:#44bebe;stroke-width:2;stroke-miterlimit:4;stroke-opacity:1;stroke-dasharray:none"
         inkscape:connector-curvature="0" />
    </g>
    <path
       style="fill:#f5f5f5;fill-opacity:1;stroke:#44bebe;stroke-width:2;stroke-miterlimit:4;stroke-opacity:1;stroke-dasharray:none"
       d="m 216.49852,661.40286 -1.93334,2.32114 1.85544,7.07725 -6.40783,-1.7625 -2.1619,2.37524 0.6538,2.51875 9.49075,2.86778 2.86904,10.92059 -10.8117,-2.9349 -2.37059,-9.16812 -3.12141,-0.85356 -1.71355,1.96831 1.70877,6.52715 -7.62104,-2.07388 -2.21823,2.12733 0.80301,3.07329 7.17048,1.95127 -4.44133,4.06577 0.58105,2.97912 2.91642,0.83488 6.61599,-6.33625 10.98451,2.98917 -7.55981,7.51617 -9.12641,-2.52479 -2.29689,2.27849 0.84458,2.46563 6.51202,1.77934 -5.60782,5.56773 0.73375,2.98316 3.06125,0.84031 5.27784,-5.23738 1.29984,5.87942 2.8711,0.98764 2.18364,-2.11049 -2.18472,-8.89996 7.84378,-7.78778 2.62153,9.98293 -6.76599,6.62554 0.8167,3.13329 2.55716,0.5008 4.80733,-4.7352 2.00178,7.64226 2.9501,0.8628 2.2642,-2.22736 -1.88471,-7.19025 5.73832,1.82414 2.29355,-1.99054 -0.72928,-2.94443 -8.79342,-2.57673 -2.66577,-10.17878 10.29644,2.80193 2.30402,8.77863 2.73698,0.72231 2.19164,-1.98826 -1.47669,-5.94632 6.94695,1.89045 2.46287,-2.36462 -1.04765,-2.83599 -7.05977,-1.917 4.72099,-4.67991 -0.98077,-3.05414 -2.50941,-0.69013 -7.2148,6.79978 -10.0503,-2.7277 7.94056,-7.88148 8.75783,2.39049 1.99099,-2.0091 -0.62421,-2.88942 -5.88936,-1.69644 5.10936,-5.07315 -0.81648,-3.31329 -2.97846,-0.5104 -5.18931,5.16018 -1.69413,-6.42938 -3.13569,-0.67699 -1.85204,1.82933 2.28165,9.6466 -7.6055,7.56001 -2.91551,-11.13581 6.46581,-6.37711 -0.73901,-2.7295 -2.81392,-0.9083 -4.42568,4.24259 -1.82172,-6.96678 -3.27746,-0.95562 z"
       id="rect2830"
       inkscape:connector-curvature="0" />

    <path
       style="fill:none;stroke:none"
       d="m 334.17293,661.02729 -0.98578,2.34791 3.70871,6.69277 -6.94278,-0.0179 -1.31258,2.54175 1.14544,1.94681 9.94359,0.39648 5.95061,10.26658 -11.91639,0.0485 -4.61233,-8.22548 -2.88962,-0.0449 -1.07527,2.03641 3.55188,6.16399 -8.25594,0 -1.3472,2.48501 1.38856,2.35508 7.7972,0.0827 -3.36826,5.20451 1.19523,2.52966 2.64911,-0.002 4.67859,-7.85633 12.05283,0 -5.47575,9.80814 -9.63384,0.0433 -1.38276,2.4844 1.22984,1.84646 7.12864,-0.0342 -4.0866,7.14957 1.3824,2.41109 2.6637,-0.0342 3.98311,-6.70681 2.99711,5.56874 2.64556,0.19712 1.31875,-2.29445 -4.53243,-7.93488 6.04721,-10.22418 5.51545,9.68331 -4.82889,8.00625 1.45838,2.40883 2.05691,-0.0623 3.62524,-6.14606 4.15867,7.02905 2.7296,0.0987 1.48908,-2.42706 -4.01381,-6.66901 6.44811,0.25087 1.32978,-2.20844 -1.45091,-2.62345 -8.75241,0.1967 -5.64928,-9.77619 11.435,-0.0827 4.44874,7.78793 2.57407,0.0199 1.3165,-2.17977 -3.2234,-5.62803 7.69371,-0.0414 1.43516,-2.52711 -1.55927,-2.10614 -7.47655,-0.0792 3.35084,-5.98806 -1.51079,-2.41467 -2.22593,-0.0485 -5.2094,8.45485 -11.18251,0.17265 6.03204,-10.50435 8.9602,0.0485 1.28638,-2.18888 -1.29575,-2.26742 -6.26877,-0.0896 3.61755,-6.5475 -1.38051,-2.62224 -2.74832,0.20398 -3.75363,6.61003 -3.63686,-5.90891 -2.73352,0.16845 -1.1183,1.81554 4.73419,8.7471 -5.79734,9.94464 -6.09155,-10.58422 4.64979,-7.8977 -1.23921,-2.04328 -2.65362,-0.17756 -3.34917,5.49349 -3.60688,-6.43054 -3.27072,-0.0609 0,-2e-5 0.0414,-0.0414 z"
       id="rect2830-7"
       sodipodi:nodetypes="ccccccccccccccccccccccccccccccccccccccccccccccccccccccccccccccccccccccccccccccccccccccc"
       inkscape:connector-curvature="0" />
    <path
       inkscape:connector-curvature="0"
       id="path6142"
       d="m 790.69764,504.42936 2.01507,2.25056 7.27193,-0.80571 -2.67629,6.08311 2.03532,2.48455 2.58709,-0.28027 4.21846,-8.97235 11.22187,-1.24919 -4.47712,10.26947 -9.41551,1.01108 -1.29874,2.96396 1.69798,1.98176 6.70634,-0.74066 -3.16091,7.23808 1.78185,2.50421 3.15744,-0.34719 2.97403,-6.81017 3.37613,4.98575 3.03196,-0.1413 1.25043,-2.76387 -5.30595,-7.46768 4.55596,-10.43254 6.33594,8.57317 -3.8261,8.66181 1.91996,2.60403 2.56229,-0.47676 2.70811,-6.18374 4.69233,6.35841 3.05818,-0.29179 1.27688,-2.90637 -4.41352,-5.98386 6.006,-0.43035 1.39496,-2.6968 -1.77023,-2.46753 -9.12315,0.86622 -6.56334,-8.89365 10.25816,-1.14078 5.57033,7.65819 3.21879,-0.352 0.86762,-2.45706 -3.98516,-5.44527 7.85222,-0.86827 1.28295,-2.79312 -1.87413,-2.56425 -7.38799,0.81822 2.63984,-5.41175 -1.63556,-2.55882 -3.01922,0.293 -3.82903,8.3248 -10.45837,1.15604 4.27057,-9.77904 9.02048,-1.00191 1.11294,-2.60272 -1.64813,-2.45767 -6.09792,0.59559 2.88133,-6.59787 -1.98101,-2.78078 -2.95827,0.62377 -2.92402,6.70562 -3.94302,-5.35181 -3.16436,0.52585 -1.04799,2.38226 5.6774,8.12758 -4.16131,9.54632 -6.64196,-9.00303 3.6396,-8.3167 -1.69796,-2.26218 -2.9495,0.19706 -2.53547,5.57977 -4.27556,-5.79327 -3.39684,0.32559 -0.93843,2.87247 4.35002,5.88504 -6.60748,0.7404 -1.12613,3.00378 1.54032,2.09855 9.87596,-0.85345 6.37267,8.62475 -11.44156,1.26385 -5.36822,-7.32506 -2.80799,0.33391 -1.30815,2.65178 3.55334,4.996 -7.15773,0.78842 -1.42243,3.1035 z"
       style="fill:#f5f5f5;fill-opacity:1;stroke:#44bebe;stroke-width:2;stroke-miterlimit:4;stroke-opacity:1;stroke-dasharray:none" />
    <path
       style="fill:#f5f5f5;fill-opacity:1;stroke:#44bebe;stroke-width:2;stroke-miterlimit:4;stroke-opacity:1;stroke-dasharray:none"
       d="m 751.79943,733.8811 -2.61234,1.51696 -0.68528,7.28426 -5.4142,-3.85394 -2.8456,1.48935 -0.25002,2.59019 7.93078,5.94988 -1.05177,11.24208 -9.14857,-6.46609 0.91873,-9.42497 -2.6391,-1.87268 -2.28485,1.26095 -0.6343,6.71725 -6.44696,-4.56267 -2.81345,1.23717 -0.30012,3.16226 6.06581,4.29291 -5.56666,2.29526 -0.47631,2.99764 2.453,1.78477 8.38828,-3.68182 9.29227,6.57633 -9.67963,4.46634 -7.70627,-5.50267 -2.9392,1.35217 -0.0526,2.60573 5.50632,3.90552 -7.17765,3.30584 -0.33427,3.05382 2.58715,1.8396 6.75436,-3.10876 -0.79619,5.96853 2.35802,1.91268 2.77518,-1.23321 1.00133,-9.10932 10.03956,-4.62403 -0.96258,10.27641 -8.62845,3.90211 -0.30784,3.22331 2.23016,1.3477 6.1401,-2.79848 -0.74165,7.86518 2.47512,1.82245 2.89094,-1.31536 0.69656,-7.40045 4.7642,3.68216 2.83725,-1.08284 0.32517,-3.01593 -7.37567,-5.43721 0.98821,-10.47556 8.7102,6.1644 -0.84764,9.03629 2.32303,1.61751 2.74075,-1.11566 0.65303,-6.09204 5.87672,4.1591 3.12465,-1.37613 -0.0111,-3.02328 -5.97357,-4.22274 6.04005,-2.77617 0.12659,-3.20525 -2.12031,-1.50922 -9.1098,3.91179 -8.50446,-6.01023 10.16262,-4.67884 7.40613,5.25007 2.55943,-1.20408 0.40499,-2.9282 -4.94991,-3.61399 6.53976,-3.01229 0.36983,-3.39231 -2.62258,-1.50128 -6.64472,3.06662 0.61451,-6.62038 -2.7131,-1.71171 -2.36725,1.0829 -1.16642,9.84389 -9.7376,4.49182 1.08196,-11.46017 8.26125,-3.77174 0.24229,-2.81737 -2.33152,-1.81855 -5.61264,2.46671 0.67904,-7.16894 -2.75073,-2.02198 z"
       id="path6144"
       inkscape:connector-curvature="0" />
    <path
       inkscape:connector-curvature="0"
       d="m 936.64449,947.66206 c -8.61721,2.39149 -8.63296,2.38639 -13.08921,-4.2216 l -4.46167,-6.61597 7.52971,-2.67332 c 7.84949,-2.78686 12.67972,-0.6507 16.77245,7.4175 1.50932,2.97554 0.18889,4.16732 -6.75128,6.09339 z m 0.73175,-46.64125 c -12.17964,6.47931 -16.41435,7.60571 -21.76769,5.79018 -9.63264,-3.26677 -9.95515,-4.20587 -4.02437,-11.71873 4.73678,-6.00035 6.86906,-6.7414 18.31176,-6.36406 7.12294,0.23487 15.31033,0.45834 18.19431,0.49649 8.30022,0.10987 5.53915,3.14986 -10.71401,11.79612 z m -16.61697,93.16449 c -1.05657,-0.23992 -8.26403,-4.31319 -16.01659,-9.05168 -12.84551,-7.8514 -14.18202,-9.39858 -15.07101,-17.44703 l -0.97545,-8.83163 9.33052,2.1198 c 8.38185,1.9043 10.00449,3.40173 15.95854,14.72676 7.85184,14.93481 9.36841,19.07291 6.77399,18.48378 z m 0.97648,-64.87221 -7.42315,6.851 2.66407,10.50087 c 2.15516,8.49483 2.0134,10.73228 -0.74202,11.71202 -1.87339,0.66615 -4.17456,1.0528 -5.11372,0.85922 -1.55039,-0.31952 -6.94098,-13.94677 -7.44273,-18.81483 -0.1142,-1.1078 -6.27792,-3.74287 -13.69722,-5.85573 -7.4193,-2.1128 -15.47163,-5.56128 -17.89403,-7.66318 -4.30975,-3.73962 -4.29635,-3.87043 0.62219,-6.08853 3.77295,-1.70146 8.62318,-1.10931 19.44783,2.37444 l 14.42127,4.64131 7.89308,-7.54582 c 8.47666,-8.10365 10.24701,-8.5617 13.44836,-3.47937 2.66635,4.23302 2.56866,4.43067 -6.18393,12.5086 z M 910.27198,917.7611 c -0.98557,0.62082 -6.86305,-0.66667 -13.06115,-2.86113 -7.34055,-2.59895 -12.00394,-3.24251 -13.37672,-1.84606 -2.61076,2.65572 -15.37106,0.006 -14.67761,-3.04797 0.78193,-3.44351 11.01612,-9.18589 14.82851,-8.32021 1.93315,0.43897 6.28544,-3.17874 10.03665,-8.3427 6.01359,-8.27826 6.99988,-8.79098 10.7128,-5.56933 2.77494,2.40786 3.32588,4.63221 1.71402,6.92034 -4.89644,6.95067 -4.54228,9.88798 1.44596,11.99175 5.682,1.99615 7.00528,8.16036 2.37754,11.07531 z m -13.27141,39.17578 c -2.17262,0.31309 -5.84421,0.13922 -8.15914,-0.38643 -3.60747,-0.81916 -4.08321,-0.0641 -3.32941,5.28383 1.03109,7.31479 -1.01809,10.09129 -6.52497,8.84084 -2.70473,-0.61417 -4.16978,-3.94908 -4.61505,-10.5054 -0.40838,-6.01316 -2.3933,-10.93132 -5.30732,-13.15031 -2.56024,-1.94959 -5.20134,-6.18242 -5.8691,-9.40632 -1.10484,-5.33402 -0.71117,-5.74743 4.3736,-4.59283 3.07324,0.69785 7.6536,3.41015 10.17855,6.0273 2.93134,3.03835 8.09883,5.26795 14.29517,6.1679 8.45963,1.22863 9.65327,2.03422 9.30612,6.28076 -0.23485,2.87327 -2.01852,5.10491 -4.34845,5.44066 z m 8.99402,-74.55256 -10.61462,-3.93698 -10.1485,10.45011 c -8.54282,8.79668 -17.47842,13.77736 -22.62193,12.60941 -1.62362,-0.36867 4.79199,-13.8211 7.0409,-14.76351 0.99486,-0.41688 5.27775,-4.0308 9.51754,-8.03086 l 7.70868,-7.27289 -2.04241,-11.11818 c -1.62037,-8.821 -1.3663,-11.35889 1.22968,-12.28331 6.10167,-2.17285 8.16691,-0.14654 9.62641,9.4448 1.3683,8.99198 2.11931,9.81526 12.44935,13.64666 9.90002,3.67189 10.86781,4.63002 9.73143,9.63453 -1.21979,5.37178 -1.61605,5.42581 -11.87653,1.62022 z m 7.35547,-18.76216 c -10.4089,2.15598 -12.73829,0.50433 -10.87314,-7.70962 1.42301,-6.26673 2.9264,-7.71916 9.07914,-8.77162 8.54325,-1.4614 8.50816,-1.49571 8.17021,7.99485 -0.21779,6.11606 -1.19191,7.41261 -6.37621,8.48639 z m -38.12456,123.5376 c -10.5478,-3.9122 -10.60903,-3.89956 -18.7161,3.85076 -8.88993,8.49877 -10.49715,8.89112 -13.35353,3.26007 -1.51185,-2.98037 -0.29971,-5.37042 5.82249,-11.48054 l 7.73181,-7.71662 -2.60154,-11.16283 c -1.4309,-6.13955 -3.40255,-11.34471 -4.38151,-11.567 -0.97895,-0.22229 -0.98492,-3.90518 -0.0132,-8.18419 0.97164,-4.27899 2.51178,-7.5874 3.42255,-7.35202 4.09175,1.05757 9.23536,11.23848 11.64256,23.04467 2.1754,10.66934 3.60175,13.09503 8.34957,14.19962 11.09982,2.5823 15.18307,6.00723 13.8998,11.65859 -1.16958,5.15069 -1.66099,5.21106 -11.80282,1.44949 z m 0.45169,19.57904 c -2.56709,7.7618 -3.85601,8.0229 -11.36783,2.3028 -3.55364,-2.7061 -4.67378,-5.5893 -3.73488,-9.61365 2.24053,-9.60374 5.03763,-10.79618 11.60688,-4.94795 4.9022,4.36417 5.45995,6.32 3.49583,12.2588 z m -2.5691,-135.66092 c -4.51749,3.42525 -8.80342,8.82516 -9.52428,11.99975 -0.72085,3.17456 -3.23298,7.37729 -5.58252,9.3393 -3.69748,3.0877 -4.46999,3.05093 -5.74576,-0.27355 -0.81066,-2.11251 -0.70086,-7.34692 0.24399,-11.632 0.94491,-4.28509 0.41198,-11.2432 -1.18424,-15.46252 -3.5634,-9.41927 -3.00627,-12.5825 2.35207,-13.35469 2.7388,-0.39471 5.03196,1.40938 6.80863,5.35644 l 2.679,5.95149 6.46698,-3.79698 c 6.15208,-3.61206 6.59446,-3.56706 9.08341,0.92398 2.40914,4.34706 1.96581,5.21426 -5.59728,10.94878 z m -16.53588,56.52346 c -3.25317,2.96102 -6.86083,3.70139 -12.16606,2.49673 -6.087,-1.38219 -8.05966,-3.25991 -10.22799,-9.73579 -2.72893,-8.1503 -1.9595,-10.12714 6.87138,-17.65333 5.91079,-5.03749 18.54729,0.67526 20.30917,9.18136 1.65359,7.98347 0.86707,10.56517 -4.7865,15.71103 z m 14.55337,-73.13205 c -5.83319,3.42489 -7.10404,3.46627 -8.32102,0.27112 -4.395,-11.53927 -4.22151,-12.7868 3.55317,-25.55339 10.50326,-17.24697 13.28001,-19.86056 13.29363,-12.51262 0.0606,32.64051 0.0312,32.77086 -8.52578,37.79489 z m -28.82257,125.87014 c -2.5685,0.37013 -5.07421,-1.60353 -6.99787,-5.51193 l -2.99659,-6.08847 -6.15683,3.61483 c -5.47605,3.21518 -6.55342,3.15582 -9.74403,-0.5371 -3.47497,-4.02207 -3.30798,-4.33483 5.33687,-9.99709 6.04533,-3.95957 9.41434,-8.00436 10.44396,-12.53871 0.83597,-3.68154 3.31375,-8.25474 5.5062,-10.16271 3.86025,-3.35942 4.03205,-3.30244 5.43444,1.80231 0.79649,2.89924 0.71732,8.59312 -0.17601,12.65306 -0.8933,4.05992 -0.23593,10.32652 1.46081,13.92587 3.79591,8.05225 3.13303,12.08426 -2.11095,12.83994 z m -15.09127,26.26897 c -4.86415,7.7692 -9.33714,14.4366 -9.93998,14.8163 -2.14082,1.3485 -0.90396,-34.64776 1.32084,-38.43942 1.24448,-2.12104 4.51278,-5.12175 7.26284,-6.66824 4.74181,-2.66658 5.16497,-2.41686 8.19241,4.83465 3.82121,9.15293 4.15917,7.89444 -6.83611,25.45671 z m 16.03189,-111.83647 c -4.88507,-1.10926 -9.026,-8.75479 -11.55817,-21.34026 l -2.95354,-14.67957 -10.81075,-2.45482 c -10.04952,-2.28197 -10.72189,-2.8461 -9.54885,-8.01201 1.18525,-5.21976 1.9706,-5.39731 12.93577,-2.92434 11.28754,2.54567 11.90919,2.37625 18.78306,-5.11908 6.15054,-6.70673 7.62561,-7.3038 10.93975,-4.42809 4.80027,4.16522 4.83125,4.06559 -4.27847,13.77822 l -7.56728,8.06813 3.83924,13.49667 c 3.44221,12.10083 3.55613,24.37286 0.21924,23.61515 z m -13.20456,44.93444 c -1.35199,2.27218 -6.81353,8.10777 -12.13668,12.96797 l -9.67843,8.83672 2.50657,9.88004 c 3.06646,12.08693 3.12694,11.81322 -2.98078,13.49113 -4.40726,1.21081 -5.27678,0.085 -7.58551,-9.82141 -2.55537,-10.96452 -2.8217,-11.2375 -13.27904,-13.61207 -9.90085,-2.24821 -10.58025,-2.82441 -9.40948,-7.98036 1.17612,-5.17946 2.00996,-5.38726 12.26943,-3.05762 10.6555,2.41956 11.31071,2.21328 20.4898,-6.45036 10.46913,-9.88125 16.15507,-13.27834 20.55318,-12.27965 3.13036,0.71082 3.04233,1.65379 -0.74906,8.02561 z m -0.97225,-38.80367 c -2.48817,-0.565 -6.80821,-3.38669 -9.60014,-6.27051 -2.94447,-3.04142 -9.30822,-6.20421 -15.1542,-7.53167 -8.75895,-1.98891 -10.02241,-2.96419 -9.65271,-7.4512 0.37197,-4.51441 1.40721,-4.93975 8.24437,-3.38723 7.78248,1.76719 7.81509,1.74068 6.97954,-5.67861 -0.66272,-5.88493 -0.098,-7.71737 2.68263,-8.70495 6.33845,-2.25122 8.74228,-0.25578 8.68935,7.21322 -0.0286,4.04282 2.97117,12.04538 6.66625,17.7835 7.51731,11.67374 7.83337,15.54621 1.14491,14.02745 z m -4.62335,24.12722 c -0.9781,1.41194 -5.01964,3.40854 -8.98122,4.43684 -3.96158,1.0283 -10.13742,5.38907 -13.72416,9.6906 -6.88673,8.25911 -8.10003,8.67258 -12.49682,4.25814 -2.24018,-2.24914 -2.01379,-3.72099 1.22696,-7.97676 5.2136,-6.84665 5.29659,-6.43454 -1.98503,-9.85806 -4.27252,-2.00873 -6.03,-4.32654 -5.39641,-7.11681 1.31682,-5.7991 3.81967,-6.11086 13.18609,-1.64269 5.96745,2.84671 10.01849,3.41349 15.05458,2.10626 7.3437,-1.90618 16.36751,-0.7917 15.44835,1.90796 -0.30471,0.89503 -1.35429,2.78254 -2.33234,4.19452 z m -3.14051,-12.73552 c -2.96248,0.30759 -11.23553,-1.08096 -18.38457,-3.08563 -12.59053,-3.53057 -13.27155,-3.4379 -21.70791,2.95323 -6.26483,4.74605 -9.70596,5.92944 -12.25923,4.21587 -4.80212,-3.2228 -3.90886,-5.53962 5.00762,-12.98765 l 7.5884,-6.33872 -3.01384,-11.23353 c -2.60806,-9.72096 -2.49995,-11.41773 0.80292,-12.60139 5.92189,-2.12223 6.50641,-1.52495 10.33482,10.55931 l 3.59071,11.33398 13.78308,3.2041 c 17.58951,4.08895 26.3925,12.72058 14.258,13.98043 z m 10.19076,-71.97895 c -2.13306,2.12126 -3.55762,1.72742 -8.34119,-2.30614 -5.06265,-4.26881 -5.43446,-5.81095 -3.0376,-12.59755 3.14306,-8.89936 2.85657,-8.83351 10.47658,-2.4083 5.87585,4.95457 6.24308,12.00066 0.90221,17.31199 z m -47.77999,144.87189 c -4.35291,0.76931 -7.98322,1.20902 -8.06731,0.97718 -0.0841,-0.23186 -0.0338,-3.80089 0.11168,-7.93124 0.23312,-6.61517 1.12946,-7.73418 7.52506,-9.3943 10.61316,-2.75485 12.12585,-1.70079 10.13599,7.06235 -1.54255,6.79321 -2.8889,8.08139 -9.70542,9.28601 z m 15.1023,-113.08511 c -8.14742,-0.30846 -8.79628,-0.93692 -17.95847,-17.39451 -5.22811,-9.391 -9.04854,-17.36245 -8.48988,-17.71437 1.37803,-0.86797 28.50992,15.50898 31.19047,18.82678 1.17659,1.45626 2.49283,5.78749 2.925,9.62497 0.75907,6.74044 0.49901,6.96626 -7.66712,6.65713 z m -15.25887,66.43138 c -4.92949,5.07446 -7.64852,5.67467 -22.18393,4.89693 -9.11119,-0.48755 -17.65575,-1.1339 -18.98781,-1.43637 -2.3935,-0.54349 22.30354,-15.29477 29.3356,-17.52186 3.96759,-1.25655 18.40675,4.18374 17.81816,6.71339 -0.20017,0.86053 -2.89211,4.16708 -5.98202,7.34791 z M 770.32693,897.8143 c -8.30694,3.09602 -10.93071,2.28568 -15.75325,-4.86544 l -4.03205,-5.97888 7.72619,-2.58695 c 7.59389,-2.54266 7.81985,-2.48196 13.19966,3.54487 3.01039,3.37245 5.40149,6.44872 5.31351,6.83618 -0.088,0.38741 -2.9923,1.76001 -6.45406,3.05022 z"
       style="fill:#f5f5f5;fill-opacity:1;stroke:#44bebe;stroke-width:2;stroke-miterlimit:4;stroke-opacity:1;stroke-dasharray:none"
       id="path1481" />
    <path
       style="fill:#ffffff;fill-opacity:1;stroke:#c6e2e2;stroke-width:2;stroke-miterlimit:4;stroke-opacity:1;stroke-dasharray:none"
       d="m 142.30003,858.93167 c 15.7538,25.38515 -24.85739,48.05879 -17.93218,9.58738 5.97737,-3.19579 11.95494,-6.39162 17.93218,-9.58738 z"
       id="path6435"
       inkscape:connector-curvature="0" />
    <path
       style="fill:#ffffff;fill-opacity:1;stroke:#c6e2e2;stroke-width:2;stroke-miterlimit:4;stroke-opacity:1;stroke-dasharray:none"
       d="m 356.12495,528.74825 c -10.48407,26.92223 -37.41733,14.58107 -5.77214,2.55829 1.92405,-0.85276 3.84809,-1.70553 5.77214,-2.55829 z"
       id="path6437"
       inkscape:connector-curvature="0" />
    <path
       style="fill:#ffffff;fill-opacity:1;stroke:#c6e2e2;stroke-width:2;stroke-miterlimit:4;stroke-opacity:1;stroke-dasharray:none"
       d="m 816.27147,576.64593 c 12.03355,29.35741 -38.74023,24.84213 -9.72573,4.95551 3.24191,-1.65184 6.48382,-3.30367 9.72573,-4.95551 z"
       id="path6439"
       inkscape:connector-curvature="0" />
    <path
       style="fill:#ffffff;fill-opacity:1;stroke:#c6e2e2;stroke-width:2;stroke-miterlimit:4;stroke-opacity:1;stroke-dasharray:none"
       d="m 948.98588,431.60531 c -9.98062,12.06244 -30.38861,58.14216 -38.85915,43.77355 8.91383,-18.44293 17.19548,-38.7624 38.85915,-43.77355 z"
       id="path6441"
       inkscape:connector-curvature="0" />
    <path
       style="fill:#ffffff;fill-opacity:1;stroke:#c6e2e2;stroke-width:2;stroke-miterlimit:4;stroke-opacity:1;stroke-dasharray:none"
       d="m 976.96672,713.40703 c 13.13001,24.54136 -35.97267,35.94738 -14.01462,7.1408 4.67154,-2.38027 9.34307,-4.76055 14.01462,-7.1408 z"
       id="path6443"
       inkscape:connector-curvature="0" />

    <path
       style="fill:#ffffff;fill-opacity:1;stroke:#c6e2e2;stroke-width:2;stroke-miterlimit:4;stroke-opacity:1;stroke-dasharray:none"
       d="m 850.70792,749.10099 c 0.14731,26.86025 -36.54314,15.95777 -5.60064,2.99435 1.86688,-0.99811 3.73376,-1.99623 5.60064,-2.99435 z"
       id="path6445"
       inkscape:connector-curvature="0" />
    <path
       style="fill:#ffffff;fill-opacity:1;stroke:#c6e2e2;stroke-width:2;stroke-miterlimit:4;stroke-opacity:1;stroke-dasharray:none"
       d="m 721.61039,946.79723 c 13.1339,34.39928 -40.29395,28.85401 -9.86149,5.02468 3.28716,-1.67489 6.57433,-3.34979 9.86149,-5.02468 z"
       id="path6451"
       inkscape:connector-curvature="0" />
    <path
       style="fill:#ffffff;fill-opacity:1;stroke:#c6e2e2;stroke-width:2;stroke-miterlimit:4;stroke-opacity:1;stroke-dasharray:none"
       d="m 627.09923,540.59744 c 15.52195,12.45316 12.43947,44.69883 -6.05604,29.5414 -14.76573,-18.45811 -12.6463,-21.05748 6.05604,-29.5414 z"
       id="path6459"
       inkscape:connector-curvature="0" />
    <path
       style="fill:#ffffff;fill-opacity:1;stroke:#c6e2e2;stroke-width:2;stroke-miterlimit:4;stroke-opacity:1;stroke-dasharray:none"
       d="m 268.36796,470.93456 c -7.12106,27.62162 -37.32659,14.81973 -5.75104,2.65977 1.91702,-0.88659 3.83403,-1.77318 5.75104,-2.65977 z"
       id="path6461"
       inkscape:connector-curvature="0" />
    <path
       style="fill:#ffffff;fill-opacity:1;stroke:#c6e2e2;stroke-width:2;stroke-miterlimit:4;stroke-opacity:1;stroke-dasharray:none"
       d="m 43.40594,382.54211 c 6.785842,33.78576 -39.2679238,17.26575 -5.708382,2.90857 1.902794,-0.96952 3.805588,-1.93905 5.708382,-2.90857 z"
       id="path6463"
       inkscape:connector-curvature="0" />
    <path
       style="fill:#ffffff;fill-opacity:1;stroke:#c6e2e2;stroke-width:2;stroke-miterlimit:4;stroke-opacity:1;stroke-dasharray:none"
       d="m 67.926973,800.42659 c -13.427765,23.05659 -32.698127,11.52571 -3.635745,1.68148 l 2.115301,-0.9783 1.520444,-0.70318 z"
       id="path6465"
       inkscape:connector-curvature="0" />
    <path
       style="fill:#ffffff;fill-opacity:1;stroke:#c6e2e2;stroke-width:2;stroke-miterlimit:4;stroke-opacity:1;stroke-dasharray:none"
       d="m 387.93182,885.54472 c 6.63629,30.9897 -38.10946,16.24763 -5.57262,2.83939 1.85754,-0.94646 3.71508,-1.89293 5.57262,-2.83939 z"
       id="path6467"
       inkscape:connector-curvature="0" />
    <path
       style="fill:#ffffff;fill-opacity:1;stroke:#c6e2e2;stroke-width:2;stroke-miterlimit:4;stroke-opacity:1;stroke-dasharray:none"
       d="m 280.8584,984.09034 c -6.90994,24.05116 -35.75749,14.3046 -5.77228,2.76516 1.92409,-0.92172 3.84819,-1.84344 5.77228,-2.76516 z"
       id="path6469"
       inkscape:connector-curvature="0" />
    <path
       style="fill:#ffffff;fill-opacity:1;stroke:#c6e2e2;stroke-width:2;stroke-miterlimit:4;stroke-opacity:1;stroke-dasharray:none"
       d="m 547.25418,744.98336 c -5.64579,24.4915 -31.36023,9.75376 -1.55527,0.79245 l 1.55527,-0.79245 0,0 z"
       id="path6471"
       inkscape:connector-curvature="0" />

    <path
       style="fill:#ffffff;fill-opacity:1;stroke:#c6e2e2;stroke-width:2;stroke-miterlimit:4;stroke-opacity:1;stroke-dasharray:none"
       d="m 448.16889,352.98683 c 2.84219,20.525 -44.90718,53.96698 -21.85882,16.01463 1.58237,-10.67442 14.43947,-11.04683 21.85882,-16.01463 z"
       id="path6477"
       inkscape:connector-curvature="0" />
    <path
       style="fill:#ffffff;fill-opacity:1;stroke:#c6e2e2;stroke-width:2;stroke-miterlimit:4;stroke-opacity:1;stroke-dasharray:none"
       d="m 670.84235,417.26482 c 9.2203,14.85827 3.27887,47.08044 -12.4081,35.08254 -5.73539,-20.29659 -9.18987,-27.8919 12.4081,-35.08254 z"
       id="path6479"
       inkscape:connector-curvature="0" />
    <path
       style="fill:#ffffff;fill-opacity:1;stroke:#c6e2e2;stroke-width:2;stroke-miterlimit:4;stroke-opacity:1;stroke-dasharray:none"
       d="m 529.16902,433.98696 c 2.18993,22.47925 -42.72504,46.26132 -18.34923,8.61748 6.11641,-2.87249 12.23282,-5.74499 18.34923,-8.61748 z"
       id="path6485"
       inkscape:connector-curvature="0" />
    <path
       style="fill:#ffffff;fill-opacity:1;stroke:#c6e2e2;stroke-width:2;stroke-miterlimit:4;stroke-opacity:1;stroke-dasharray:none"
       d="m 475.95798,625.13238 c 27.76062,20.68168 -27.73675,35.16824 -13.64773,7.7708 4.54924,-2.59027 9.09849,-5.18053 13.64773,-7.7708 z"
       id="path6487"
       inkscape:connector-curvature="0" />
    <path
       style="fill:#ffffff;fill-opacity:1;stroke:#c6e2e2;stroke-width:2;stroke-miterlimit:4;stroke-opacity:1;stroke-dasharray:none"
       d="m 548.52732,842.81468 c 9.41788,17.91474 -34.85794,52.06028 -19.93688,17.40144 -2.24724,-12.07112 13.0011,-12.1575 19.93688,-17.40144 z"
       id="path6489"
       inkscape:connector-curvature="0" />
    <path
       style="fill:#ffffff;fill-opacity:1;stroke:#c6e2e2;stroke-width:2;stroke-miterlimit:4;stroke-opacity:1;stroke-dasharray:none"
       d="m 646.14828,970.13523 c 9.97045,36.50537 -39.97343,18.81018 -5.60064,2.99436 1.86688,-0.99812 3.73376,-1.99624 5.60064,-2.99436 z"
       id="path6491"
       inkscape:connector-curvature="0" />
    <path
       style="fill:#ffffff;fill-opacity:1;stroke:#c6e2e2;stroke-width:2.49979305;stroke-miterlimit:4;stroke-opacity:1;stroke-dasharray:none"
       d="m 378.69145,738.79977 c -16.0276,31.22109 -35.00916,16.40363 -3.99408,2.41197 l 2.29719,-1.38725 1.69689,-1.02472 0,0 z"
       id="path6493"
       inkscape:connector-curvature="0" />
    <path
       style="fill:#ffffff;fill-opacity:1;stroke:#c6e2e2;stroke-width:2;stroke-miterlimit:4;stroke-opacity:1;stroke-dasharray:none"
       d="m 276.75088,826.33498 c 17.17084,23.76737 -33.70734,35.19636 -13.92409,7.09468 4.64136,-2.3649 9.28273,-4.72979 13.92409,-7.09468 z"
       id="path6495"
       inkscape:connector-curvature="0" />
    <path
       style="fill:#ffffff;fill-opacity:1;stroke:#c6e2e2;stroke-width:2.15063787;stroke-miterlimit:4;stroke-opacity:1;stroke-dasharray:none"
       d="m 232.55139,590.52661 c -14.46136,24.54836 -22.99975,12.11364 -1.29655,0.93095 l 1.29655,-0.93095 z"
       id="path6497"
       inkscape:connector-curvature="0" />

    <path
       style="fill:#ffffff;fill-opacity:1;stroke:#c6e2e2;stroke-width:2;stroke-miterlimit:4;stroke-opacity:1;stroke-dasharray:none"
       d="m 188.05631,347.31521 c 20.58994,17.09635 -37.52798,18.44358 -5.46585,3.2437 1.82195,-1.08123 3.6439,-2.16247 5.46585,-3.2437 z"
       id="path6499"
       inkscape:connector-curvature="0" />
    <path
       style="fill:#ffffff;fill-opacity:1;stroke:#c6e2e2;stroke-width:2;stroke-miterlimit:4;stroke-opacity:1;stroke-dasharray:none"
       d="m 803.88365,334.84779 c -0.005,24.65545 -42.8412,27.90989 -12.00555,5.82156 4.00185,-1.94052 8.0037,-3.88104 12.00555,-5.82156 z"
       id="path6501"
       inkscape:connector-curvature="0" />
    <path
       style="fill:#ffffff;fill-opacity:1;stroke:#c6e2e2;stroke-width:2;stroke-miterlimit:4;stroke-opacity:1;stroke-dasharray:none"
       d="m 884.98352,408.6269 c 19.57675,23.95961 -31.26604,34.68794 -14.01459,7.1408 4.67153,-2.38027 9.34306,-4.76053 14.01459,-7.1408 z"
       id="path6505"
       inkscape:connector-curvature="0" />
  </g>
</svg>

