<?xml version="1.0" encoding="UTF-8" standalone="no"?>
<!-- Created with Inkscape (http://www.inkscape.org/) -->

<svg
   xmlns:dc="http://purl.org/dc/elements/1.1/"
   xmlns:cc="http://creativecommons.org/ns#"
   xmlns:rdf="http://www.w3.org/1999/02/22-rdf-syntax-ns#"
   xmlns:svg="http://www.w3.org/2000/svg"
   xmlns="http://www.w3.org/2000/svg"
   xmlns:sodipodi="http://sodipodi.sourceforge.net/DTD/sodipodi-0.dtd"
   xmlns:inkscape="http://www.inkscape.org/namespaces/inkscape"
   width="800.00128"
   height="600"
   id="svg2"
   version="1.1"
   inkscape:version="0.48.0 r9654"
   sodipodi:docname="car.svg">
  <defs
     id="defs4" />
  <sodipodi:namedview
     id="base"
     pagecolor="#ffffff"
     bordercolor="#666666"
     borderopacity="1.0"
     inkscape:pageopacity="0.0"
     inkscape:pageshadow="2"
     inkscape:zoom="1"
     inkscape:cx="325.85976"
     inkscape:cy="235.90743"
     inkscape:document-units="px"
     inkscape:current-layer="layer1"
     showgrid="false"
     inkscape:window-width="1860"
     inkscape:window-height="1143"
     inkscape:window-x="58"
     inkscape:window-y="25"
     inkscape:window-maximized="0"
     fit-margin-top="0"
     fit-margin-left="0"
     fit-margin-right="0"
     fit-margin-bottom="0"
     showguides="false">
    <inkscape:grid
       type="xygrid"
       id="grid2985"
       empspacing="5"
       visible="true"
       enabled="true"
       snapvisiblegridlinesonly="true" />
  </sodipodi:namedview>
  <metadata
     id="metadata7">
    <rdf:RDF>
      <cc:Work
         rdf:about="">

        <dc:format>image/svg+xml</dc:format>
        <dc:type
           rdf:resource="http://purl.org/dc/dcmitype/StillImage" />
        <dc:title />
      </cc:Work>
    </rdf:RDF>
  </metadata>
  <g
     inkscape:label="Layer 1"
     inkscape:groupmode="layer"
     id="layer1"
     transform="translate(0,-451.12195)">
    <g
       id="g3913"
       transform="matrix(2.0025063,0,0,1.9998379,0.50062657,-1053.9574)">

      <path
         inkscape:connector-curvature="0"
         id="path3855"
         d="M 199.46875,753.37093 C 142.17864,753.56626 84.056702,757.02659 25.25,763.19399 10.378569,828.85447 5.2437978,897.28399 0,966.68505 l 0,85.67715 399,0 0,-85.67715 C 394.32488,898.6098 394.20567,830.30847 368.6875,763.19399 313.21159,756.24528 256.75886,753.1756 199.46875,753.37093 z m 2.5625,13.58909 c 51.73897,0.0924 101.79932,3.21871 161.625,9.10123 16.44258,59.28753 22.15788,124.25929 25.25,190.6238 -125.45543,-19.76123 -252.02367,-12.75315 -378.8125,0 2.344004,-63.54143 9.806934,-127.08237 20.21875,-190.6238 66.560235,-6.25195 119.97978,-9.19359 171.71875,-9.10123 z"
         style="fill:#ef2929;fill-opacity:1;stroke:#000000;stroke-width:0.49970716;stroke-opacity:1" />
      <path
         id="rect2987"
         transform="translate(0,752.36218)"
         d="M 202.03125,15.8125 C 150.29228,15.720536 96.872735,18.64966 30.3125,24.875 19.900684,88.146 12.437754,151.41651 10.09375,214.6875 c 126.78883,-12.69887 253.35707,-19.67712 378.8125,0 -3.09212,-66.08206 -8.80742,-130.7773 -25.25,-189.8125 -59.82568,-5.857485 -109.88603,-8.970536 -161.625,-9.0625 z M 190.5,28.0625 c 78.6647,-0.62539 148.46751,47.283105 167.9375,116.84375 L 216.09375,181.6875 c -0.006,-0.0897 0.008,-0.19161 0,-0.28125 -1.01886,-11.95231 -12.66027,-20.88166 -26,-19.96875 -13.3397,0.91289 -23.33139,11.32892 -22.3125,23.28125 l -147.0625,9.75 C 13.496079,109.32089 84.280002,35.03474 178.84375,28.53125 182.7505,28.262569 186.63124,28.093257 190.5,28.0625 z"
         style="color:#000000;fill:#e4e4e4;fill-opacity:1;fill-rule:nonzero;stroke:none;stroke-width:3;marker:none;visibility:visible;display:inline;overflow:visible;enable-background:accumulate"
         inkscape:connector-curvature="0" />
      <path
         sodipodi:nodetypes="ccsccscc"
         inkscape:connector-curvature="0"
         id="path3068"
         d="m 216.10167,934.05208 c -0.006,-0.0897 -0.0126,-0.17941 -0.021,-0.26905 -1.01886,-11.95231 -12.65878,-20.90153 -25.99851,-19.98862 -13.3397,0.91289 -23.32774,11.34221 -22.30885,23.29454 l -147.069159,9.74532 c -7.222671,-85.14786 63.581271,-159.446 158.145019,-165.94949 83.34393,-5.73186 159.16477,43.40431 179.5923,116.38597 z"
         style="color:#000000;fill:none;stroke:none;stroke-width:2.10706139;marker:none;visibility:visible;display:inline;overflow:visible;enable-background:accumulate" />
      <g
         id="g3894">
        <path
           style="font-size:medium;font-style:normal;font-variant:normal;font-weight:normal;font-stretch:normal;text-indent:0;text-align:start;text-decoration:none;line-height:normal;letter-spacing:normal;word-spacing:normal;text-transform:none;direction:ltr;block-progression:tb;writing-mode:lr-tb;text-anchor:start;baseline-shift:baseline;color:#000000;fill:#000000;fill-opacity:1;stroke:none;stroke-width:1px;marker:none;visibility:visible;display:inline;overflow:visible;enable-background:accumulate;font-family:Sans;-inkscape-font-specification:Sans"
           d="m 92.934543,941.45687 -5.050633,1.06636 109.09367,29.85822 0,-5.33183 z"
           id="path3046"
           inkscape:connector-curvature="0"
           sodipodi:nodetypes="ccccc" />
        <path
           inkscape:transform-center-y="-23.713626"
           inkscape:transform-center-x="103.20348"
           inkscape:connector-curvature="0"
           id="path3048"
           d="m 20.794604,946.53484 146.969106,-9.5969"
           style="fill:none;stroke:#000000;stroke-width:0.99941432;stroke-linecap:butt;stroke-linejoin:miter;stroke-opacity:1"
           sodipodi:nodetypes="cc" />
      </g>
      <g
         transform="matrix(1.0101266,0,0,1.0663651,0.00289147,-69.843477)"
         id="g3861">
        <path
           sodipodi:type="arc"
           style="color:#000000;fill:#cdf3fe;fill-opacity:1;fill-rule:nonzero;stroke:#000000;stroke-width:1.92590451;stroke-opacity:1;marker:none;visibility:visible;display:inline;overflow:visible;enable-background:accumulate"
           id="path3842"
           sodipodi:cx="67.5"
           sodipodi:cy="302.5"
           sodipodi:rx="42.5"
           sodipodi:ry="47.5"
           d="m 25.069154,299.79139 c 1.338457,-26.19084 21.420427,-46.21002 44.854336,-44.7141 21.521907,1.37387 38.71472,20.53867 40.00081,44.58886"
           transform="translate(0,752.36218)"
           sodipodi:start="3.1986469"
           sodipodi:end="6.2234898"
           sodipodi:open="true" />

        <path
           style="opacity:0.6;fill:#ffffff;fill-opacity:1;stroke:none"
           d="m 50,265 c -6.48551,2.30274 -17.824972,15.54376 -20,30 2.236214,3.12949 5.767936,3.53164 10,4 5,-15 10.864081,-25.07011 20,-34 z"
           id="path3846"
           inkscape:connector-curvature="0"
           transform="translate(0,752.36218)"
           sodipodi:nodetypes="ccccc" />
      </g>
      <g
         transform="matrix(1.0101266,0,0,1.0663667,0.00289147,-71.978052)"
         id="g3871">
        <path
           transform="translate(0,752.36218)"
           style="color:#000000;fill:#000102;fill-opacity:1;fill-rule:nonzero;stroke:#b8b8b8;stroke-width:1.92590308;stroke-linecap:round;stroke-linejoin:miter;stroke-miterlimit:4;stroke-opacity:1;stroke-dashoffset:0;marker:none;visibility:visible;display:inline;overflow:visible;enable-background:accumulate"
           d="m 120,280 c 66.69884,-8.91034 115.75283,-6.05745 160,0 l 0,20 -160,0 z"
           id="rect3848"
           inkscape:connector-curvature="0"
           sodipodi:nodetypes="ccccc" />
        <path
           style="fill:none;stroke:#b8b8b8;stroke-width:1.92590308;stroke-linecap:butt;stroke-linejoin:miter;stroke-opacity:1"
           d="m 120,290 c 53.8097,-2.38181 107.13309,-2.33212 160,0"
           id="path3851"
           inkscape:connector-curvature="0"
           transform="translate(0,752.36218)"
           sodipodi:nodetypes="cc" />
      </g>
      <g
         transform="matrix(1.0101266,0,0,1.0663651,267.68646,-69.843477)"
         id="g3865">
        <path
           sodipodi:open="true"
           sodipodi:end="6.2234898"
           sodipodi:start="3.1986469"
           transform="translate(0,752.36218)"
           d="m 25.069154,299.79139 c 1.338457,-26.19084 21.420427,-46.21002 44.854336,-44.7141 21.521907,1.37387 38.71472,20.53867 40.00081,44.58886"
           sodipodi:ry="47.5"
           sodipodi:rx="42.5"
           sodipodi:cy="302.5"
           sodipodi:cx="67.5"
           id="path3867"
           style="color:#000000;fill:#cdf3fe;fill-opacity:1;fill-rule:nonzero;stroke:#000000;stroke-width:1.92590451;stroke-opacity:1;marker:none;visibility:visible;display:inline;overflow:visible;enable-background:accumulate"
           sodipodi:type="arc" />
        <path
           sodipodi:nodetypes="ccccc"
           transform="translate(0,752.36218)"
           inkscape:connector-curvature="0"
           id="path3869"
           d="m 50,265 c -6.48551,2.30274 -17.824972,15.54376 -20,30 2.236214,3.12949 5.767936,3.53164 10,4 5,-15 10.864081,-25.07011 20,-34 z"
           style="opacity:0.6;fill:#ffffff;fill-opacity:1;stroke:none" />

      </g>
    </g>
  </g>
</svg>

