<?xml version="1.0" encoding="UTF-8" standalone="no"?>
<!-- Created with Inkscape (http://www.inkscape.org/) -->

<svg
   xmlns:dc="http://purl.org/dc/elements/1.1/"
   xmlns:cc="http://creativecommons.org/ns#"
   xmlns:rdf="http://www.w3.org/1999/02/22-rdf-syntax-ns#"
   xmlns:svg="http://www.w3.org/2000/svg"
   xmlns="http://www.w3.org/2000/svg"
   xmlns:xlink="http://www.w3.org/1999/xlink"
   xmlns:sodipodi="http://sodipodi.sourceforge.net/DTD/sodipodi-0.dtd"
   xmlns:inkscape="http://www.inkscape.org/namespaces/inkscape"
   width="990"
   height="765"
   id="svg2"
   version="1.1"
   inkscape:version="0.48.0 r9654"
   sodipodi:docname="cheese_kiss.svg">
  <title
     id="title5496">Cheese Kiss Overlay</title>
  <defs
     id="defs4">
    <linearGradient
       inkscape:collect="always"
       id="linearGradient5222">
      <stop
         style="stop-color:#24a437;stop-opacity:1;"
         offset="0"
         id="stop5224" />
      <stop
         style="stop-color:#24a437;stop-opacity:0;"
         offset="1"
         id="stop5226" />
    </linearGradient>

    <inkscape:perspective
       id="perspective10"
       inkscape:persp3d-origin="372.04724 : 350.78739 : 1"
       inkscape:vp_z="744.09448 : 526.18109 : 1"
       inkscape:vp_y="0 : 1000 : 0"
       inkscape:vp_x="0 : 526.18109 : 1"
       sodipodi:type="inkscape:persp3d" />
    <radialGradient
       xlink:href="#linearGradient4930"
       r="21.465179"
       inkscape:collect="always"
       id="radialGradient8071"
       gradientUnits="userSpaceOnUse"
       gradientTransform="matrix(0.887174,0,0,0.741629,-38.9171,-382.509)"
       fy="835.95514"
       fx="406.02457"
       cy="851.52258"
       cx="405.73886" />
    <radialGradient
       xlink:href="#linearGradient4930"
       r="21.465179"
       inkscape:collect="always"
       id="radialGradient8070"
       gradientUnits="userSpaceOnUse"
       gradientTransform="matrix(1.09373,0,0,0.914301,-227.189,-539.652)"
       fy="835.95514"
       fx="406.02457"
       cy="851.52258"
       cx="405.73886" />
    <radialGradient
       xlink:href="#linearGradient4930"
       r="27.894432"
       inkscape:collect="always"
       id="radialGradient8069"
       gradientUnits="userSpaceOnUse"
       gradientTransform="matrix(1.58985,0,0,1.01486,-205.68,-248.096)"
       fy="1138.5897"
       fx="613.52435"
       cy="1156.0232"
       cx="612.00226" />
    <radialGradient
       xlink:href="#linearGradient4930"
       r="21.465179"
       inkscape:collect="always"
       id="radialGradient8063"
       gradientUnits="userSpaceOnUse"
       gradientTransform="matrix(1.09373, 1.22674e-16, -2.11789e-16, 0.914301, -227.189, -539.652)"
       fy="835.95514"
       fx="406.02457"
       cy="851.52258"
       cx="405.73886" />
    <radialGradient
       xlink:href="#linearGradient4930"
       r="21.465179"
       inkscape:collect="always"
       id="radialGradient8062"
       gradientUnits="userSpaceOnUse"
       gradientTransform="matrix(0.887174, 1.31378e-16, -2.40934e-16, 0.741629, -38.9171, -382.509)"
       fy="835.95514"
       fx="406.02457"
       cy="851.52258"
       cx="405.73886" />
    <radialGradient
       xlink:href="#linearGradient4930"
       r="21.465179"
       inkscape:collect="always"
       id="radialGradient8057"
       gradientUnits="userSpaceOnUse"
       gradientTransform="matrix(0.887174, 1.06285e-16, -2.26581e-16, 0.741629, 188.313, 159.138)"
       fy="835.95514"
       fx="406.02457"
       cy="851.52258"
       cx="405.73886" />
    <radialGradient
       xlink:href="#linearGradient4930"
       r="21.465179"
       inkscape:collect="always"
       id="radialGradient8056"
       gradientUnits="userSpaceOnUse"
       gradientTransform="matrix(1.09373, 6.08033e-17, -1.764e-16, 0.914301, 0.0410719, 1.99518)"
       fy="835.95514"
       fx="406.02457"
       cy="851.52258"
       cx="405.73886" />
    <radialGradient
       xlink:href="#linearGradient4930"
       r="27.894432"
       inkscape:collect="always"
       id="radialGradient8055"
       gradientUnits="userSpaceOnUse"
       gradientTransform="matrix(1.58985, 0, 3.50217e-16, 1.01486, -205.68, -248.096)"
       fy="1138.5897"
       fx="613.52435"
       cy="1156.0232"
       cx="612.00226" />

    <radialGradient
       xlink:href="#linearGradient4930"
       r="21.465179"
       inkscape:collect="always"
       id="radialGradient8049"
       gradientUnits="userSpaceOnUse"
       gradientTransform="matrix(0.887174, 8.95484e-17, -1.84026e-16, 0.741629, 188.313, 159.138)"
       fy="835.95514"
       fx="406.02457"
       cy="851.52258"
       cx="405.73886" />
    <radialGradient
       xlink:href="#linearGradient4930"
       r="21.465179"
       inkscape:collect="always"
       id="radialGradient7426"
       gradientUnits="userSpaceOnUse"
       gradientTransform="matrix(1.09373, 4.01699e-17, -1.23936e-16, 0.914301, 0.0410719, 1.99518)"
       fy="835.95514"
       fx="406.02457"
       cy="851.52258"
       cx="405.73886" />
    <radialGradient
       xlink:href="#linearGradient4930"
       r="27.894432"
       inkscape:collect="always"
       id="radialGradient4936"
       gradientUnits="userSpaceOnUse"
       gradientTransform="matrix(1.58985, 0, 3.21114e-16, 1.01486, -205.68, -248.096)"
       fy="1138.5897"
       fx="613.52435"
       cy="1156.0232"
       cx="612.00226" />
    <linearGradient
       id="linearGradient4297">
      <stop
         style="stop-color:#ffffff;stop-opacity:1.0000000;"
         offset="0.0000000"
         id="stop4298" />
      <stop
         style="stop-color:#ffffff;stop-opacity:0.0000000;"
         offset="1.0000000"
         id="stop4299" />
    </linearGradient>
    <linearGradient
       id="linearGradient4304">
      <stop
         style="stop-color:#ffffff;stop-opacity:1.0000000;"
         offset="0.0000000"
         id="stop4305" />

      <stop
         style="stop-color:#ffffff;stop-opacity:0.0000000;"
         offset="1.0000000"
         id="stop4306" />
    </linearGradient>
    <linearGradient
       id="linearGradient4930">
      <stop
         style="stop-color:#ffffff;stop-opacity:1.0000000;"
         offset="0.0000000"
         id="stop4931" />
      <stop
         style="stop-color:#ffffff;stop-opacity:0.0000000;"
         offset="1.0000000"
         id="stop4932" />
    </linearGradient>
    <radialGradient
       inkscape:collect="always"
       xlink:href="#linearGradient4930"
       id="radialGradient5111"
       gradientUnits="userSpaceOnUse"
       gradientTransform="matrix(1.0892195,0,0,0.88943209,-194.69793,-696.09754)"
       cx="405.73886"
       cy="851.52258"
       fx="406.02457"
       fy="835.95514"
       r="21.465179" />
    <radialGradient
       inkscape:collect="always"
       xlink:href="#linearGradient4930"
       id="radialGradient5114"
       gradientUnits="userSpaceOnUse"
       gradientTransform="matrix(1.3428167,0,0,1.0965168,-425.84698,-884.55838)"
       cx="405.73886"
       cy="851.52258"
       fx="406.02457"
       fy="835.95514"
       r="21.465179" />
    <radialGradient
       inkscape:collect="always"
       xlink:href="#linearGradient4930"
       id="radialGradient5117"
       gradientUnits="userSpaceOnUse"
       gradientTransform="matrix(1.9529717,0,0,1.223936,-906.71524,-1243.9732)"
       cx="612.00226"
       cy="1156.0232"
       fx="613.52435"
       fy="1138.5897"
       r="27.894432" />

    <radialGradient
       inkscape:collect="always"
       xlink:href="#linearGradient5222"
       id="radialGradient5228"
       cx="1284.4194"
       cy="1499.5527"
       fx="1284.4194"
       fy="1499.5527"
       r="82.623184"
       gradientTransform="matrix(1,0,0,0.62670664,0,559.77307)"
       gradientUnits="userSpaceOnUse" />
    <radialGradient
       inkscape:collect="always"
       xlink:href="#linearGradient5222"
       id="radialGradient5230"
       cx="915.75711"
       cy="1256.0786"
       fx="915.75711"
       fy="1256.0786"
       r="35.45993"
       gradientTransform="matrix(1,0,0,0.81657886,0,230.39137)"
       gradientUnits="userSpaceOnUse" />
    <radialGradient
       inkscape:collect="always"
       xlink:href="#linearGradient5222"
       id="radialGradient5232"
       cx="721.27939"
       cy="1237.691"
       fx="721.27939"
       fy="1237.691"
       r="43.715977"
       gradientTransform="matrix(1,0,0,0.8165789,0,227.01864)"
       gradientUnits="userSpaceOnUse" />
  </defs>
  <sodipodi:namedview
     id="base"
     pagecolor="#ffffff"
     bordercolor="#666666"
     borderopacity="1.0"
     inkscape:pageopacity="0.0"
     inkscape:pageshadow="2"
     inkscape:zoom="0.7"
     inkscape:cx="502.14299"
     inkscape:cy="307.81332"
     inkscape:document-units="px"
     inkscape:current-layer="layer1"
     showgrid="false"
     inkscape:showpageshadow="true"
     inkscape:window-width="1288"
     inkscape:window-height="913"
     inkscape:window-x="177"
     inkscape:window-y="86"
     inkscape:window-maximized="0" />
  <metadata
     id="metadata7">
    <rdf:RDF>
      <cc:Work
         rdf:about="">
        <dc:format>image/svg+xml</dc:format>

        <dc:type
           rdf:resource="http://purl.org/dc/dcmitype/StillImage" />
        <dc:title>Cheese Kiss Overlay</dc:title>
        <dc:creator>
          <cc:Agent>
            <dc:title>Peter Shinners</dc:title>
          </cc:Agent>
        </dc:creator>
        <dc:contributor>

          <cc:Agent>
            <dc:title>openclipart.org, Molumen, Jon Phillips</dc:title>
          </cc:Agent>
        </dc:contributor>
        <cc:license
           rdf:resource="http://creativecommons.org/licenses/publicdomain/" />
      </cc:Work>
      <cc:License
         rdf:about="http://creativecommons.org/licenses/publicdomain/">
        <cc:permits
           rdf:resource="http://creativecommons.org/ns#Reproduction" />

        <cc:permits
           rdf:resource="http://creativecommons.org/ns#Distribution" />
        <cc:permits
           rdf:resource="http://creativecommons.org/ns#DerivativeWorks" />
      </cc:License>
    </rdf:RDF>
  </metadata>
  <g
     inkscape:label="Layer 1"
     inkscape:groupmode="layer"
     id="layer1"
     transform="translate(0,-287.36218)">
    <g
       id="g5470"
       transform="matrix(1.0002881,0,0,1.2516123,1.7333602,-74.226172)">
      <path
         style="fill:#e60000;fill-opacity:1;stroke:#640000;stroke-width:4.55676699;stroke-miterlimit:4;stroke-opacity:1"
         sodipodi:nodetypes="ccccccc"
         id="path7"
         d="m 12.542141,577.13383 c -8.7121143,13.58812 -4.7547777,31.68685 8.833353,40.39897 27.643022,17.72351 52.769199,-5.51413 92.280316,-6.99396 -15.64245,-35.37866 -5.39714,-69.62053 -32.15766,-86.77822 -13.588121,-8.71211 -31.686855,-4.7548 -40.398977,8.83334 -6.319427,9.85629 -5.938649,22.07075 -0.08576,31.36972 -10.89309,-1.43786 -22.151833,3.31384 -28.471268,13.17015 z"
         inkscape:connector-curvature="0" />
      <path
         style="fill:#e6e6e6;fill-opacity:0.33333333;stroke:none"
         sodipodi:nodetypes="ccccccc"
         id="path220"
         d="m 16.534811,579.23516 c -7.6230612,11.88954 -4.160369,27.72605 7.729178,35.34911 24.187513,15.50798 46.172571,-4.81853 80.744601,-6.11338 -1.17173,-2.65011 -48.261785,9.57224 -68.7505,-3.56423 -11.889547,-7.62306 -15.352239,-23.45957 -7.729178,-35.34911 0.06631,-0.10351 0.142522,-0.19727 0.210107,-0.29948 -4.853445,1.88882 -9.178441,5.25785 -12.204208,9.97709 z"
         inkscape:connector-curvature="0" />

    </g>
    <g
       id="g5474"
       transform="matrix(1.0002881,0,0,1.2516123,1.7333602,-74.226172)">
      <path
         inkscape:connector-curvature="0"
         d="m 68.735613,319.45822 c -17.397021,6.09256 -26.571646,25.15655 -20.479089,42.55358 12.394408,35.39167 51.345083,32.16835 87.926136,58.63717 10.8221,-42.82873 44.13013,-66.42036 32.13141,-100.68215 -6.09255,-17.39703 -25.15653,-26.57167 -42.55358,-20.47911 -12.61911,4.41931 -20.87066,15.674 -22.14878,28.1564 -8.78655,-8.95769 -22.256955,-12.6052 -34.876097,-8.18589 z"
         id="path3069"
         sodipodi:nodetypes="ccccccc"
         style="fill:#e60000;fill-opacity:1;stroke:#640000;stroke-width:5.20376158;stroke-miterlimit:4;stroke-opacity:1" />
      <path
         inkscape:connector-curvature="0"
         d="m 70.848487,324.15758 c -15.222306,5.33096 -23.250171,22.01207 -17.919214,37.23438 10.845045,30.96754 44.922062,28.15267 76.930297,51.31276 0.81065,-3.20817 -50.145984,-25.34673 -59.332586,-51.57865 -5.330958,-15.22231 2.696908,-31.90343 17.919214,-37.23439 0.132508,-0.0464 0.266991,-0.0772 0.399703,-0.12155 -5.694591,-1.71589 -11.95532,-1.72854 -17.997414,0.38745 z"
         id="path3071"
         sodipodi:nodetypes="ccccccc"
         style="fill:#e6e6e6;fill-opacity:0.33333333;stroke:none" />
    </g>
    <g
       id="g5478"
       transform="matrix(1.0002881,0,0,1.2516123,1.7333602,-74.226172)">
      <path
         style="fill:#e60000;fill-opacity:1;stroke:#640000;stroke-width:4.57276106;stroke-miterlimit:4;stroke-opacity:1"
         sodipodi:nodetypes="ccccccc"
         id="path3075"
         d="m 302.89216,316.03686 c -15.49582,4.71696 -24.24388,21.12152 -19.52693,36.61734 9.59594,31.52396 43.91137,30.1095 75.0672,54.67829 11.05821,-37.20988 41.15969,-56.71259 31.8701,-87.23015 -4.71694,-15.49582 -21.12149,-24.24391 -36.61733,-19.52694 -11.24007,3.42148 -18.89387,13.00311 -20.46968,23.91608 -7.38896,-8.18409 -19.08327,-11.87611 -30.32336,-8.45462 z"
         inkscape:connector-curvature="0" />
      <path
         style="fill:#e6e6e6;fill-opacity:0.33333333;stroke:none"
         sodipodi:nodetypes="ccccccc"
         id="path3077"
         d="m 304.57646,320.23964 c -13.55877,4.1273 -21.21338,18.4814 -17.08608,32.04017 8.3964,27.58331 38.41797,26.35034 65.67917,47.84791 0.82834,-2.78728 -43.10649,-24.0766 -50.2189,-47.44182 -4.12731,-13.55877 3.52731,-27.91286 17.08608,-32.04017 0.11803,-0.0359 0.23724,-0.058 0.35534,-0.0922 -4.93742,-1.71348 -10.43382,-1.95212 -15.81562,-0.31389 z"
         inkscape:connector-curvature="0" />
    </g>

    <g
       id="g5486"
       transform="matrix(1.0002881,0,0,1.2516123,1.7333602,-74.226172)">
      <path
         inkscape:connector-curvature="0"
         d="m 959.32766,406.84027 c -6.38517,-10.52494 -20.1093,-13.88475 -30.63425,-7.49958 -21.41142,12.98969 -13.92212,37.99402 -26.16074,65.55372 29.47937,1.1518 49.49719,19.65428 70.22506,7.0793 10.52493,-6.38517 13.88475,-20.1093 7.49958,-30.63425 -4.63156,-7.63438 -13.12562,-11.47036 -21.4581,-10.58031 4.63847,-6.97901 5.16001,-16.28449 0.52845,-23.91888 z"
         id="path3081"
         sodipodi:nodetypes="ccccccc"
         style="fill:#e60000;fill-opacity:1;stroke:#640000;stroke-width:3.47529411;stroke-miterlimit:4;stroke-opacity:1" />
      <path
         inkscape:connector-curvature="0"
         d="m 956.54918,408.87027 c -5.58699,-9.20926 -17.5957,-12.14912 -26.80496,-6.56213 -18.7349,11.36591 -12.18604,33.24231 -22.89478,57.35691 2.20822,0.0863 9.6307,-36.26776 25.50062,-45.89556 9.20927,-5.587 21.21797,-2.64714 26.80496,6.56213 0.0486,0.0802 0.0873,0.16378 0.13468,0.24435 0.33412,-3.95791 -0.5229,-8.05033 -2.7405,-11.70571 z"
         id="path3083"
         sodipodi:nodetypes="ccccccc"
         style="fill:#e6e6e6;fill-opacity:0.33333333;stroke:none" />
    </g>
    <g
       id="g5482"
       transform="matrix(1.0002881,0,0,1.2516123,1.7333602,-74.226172)">
      <path
         style="fill:#e60000;fill-opacity:1;stroke:#640000;stroke-width:5.31475925;stroke-miterlimit:4;stroke-opacity:1"
         sodipodi:nodetypes="ccccccc"
         id="path3087"
         d="m 754.48488,301.1105 c -16.99859,-8.09155 -37.36159,-0.86264 -45.45314,16.13595 -16.46106,34.58113 14.10632,60.25293 21.60338,105.75533 38.64715,-23.27988 79.76905,-16.43811 95.70459,-49.91523 8.09155,-16.99859 0.86267,-37.36159 -16.13595,-45.45315 -12.33011,-5.86929 -26.40794,-3.64039 -36.31104,4.49353 0.0689,-12.81511 -7.07771,-25.14713 -19.40784,-31.01643 z"
         inkscape:connector-curvature="0" />
      <path
         style="fill:#e6e6e6;fill-opacity:0.33333333;stroke:none"
         sodipodi:nodetypes="ccccccc"
         id="path3089"
         d="m 752.63794,306.03815 c -14.87368,-7.08007 -32.69144,-0.75474 -39.7715,14.11895 -14.40335,30.25831 12.33563,52.72168 18.89552,92.53606 2.89495,-1.74383 -18.14211,-54.44318 -5.94135,-80.07434 7.08007,-14.87368 24.89782,-21.19901 39.77151,-14.11895 0.12947,0.0616 0.24913,0.13603 0.37729,0.19927 -2.89617,-5.33947 -7.42775,-9.85075 -13.33147,-12.66099 z"
         inkscape:connector-curvature="0" />
    </g>
    <g
       id="g5490"
       transform="translate(2.0203051,38.385797)">

      <rect
         y="808.91541"
         x="469.72092"
         height="42.931484"
         width="95.964493"
         id="rect5459"
         style="fill:#640000;fill-opacity:1;stroke:none" />
      <path
         sodipodi:nodetypes="cczccccccccc"
         inkscape:connector-curvature="0"
         id="path1070"
         d="m 460.21875,687.71875 c -42.62295,4.70649 -74.52155,36.89852 -107.01702,61.57158 -21.48846,17.46284 -52.30223,43.63701 -58.17494,53.79896 -5.87271,10.16195 15.03016,28.99233 26.45271,42.59622 26.17987,24.61465 49.63055,51.93019 75.45756,76.85089 55.54957,51.17193 146.03091,60.9497 209.27416,18.20169 40.54994,-24.94255 65.8763,-66.67636 102.18008,-96.59048 9.79346,-10.87271 29.56867,-19.20188 26.00893,-36.63488 -13.98325,-22.01676 -38.40139,-35.38466 -57.21568,-53.19922 -27.33997,-21.31732 -45.20484,-48.55958 -82.69831,-61.12629 -22.24254,-9.60253 -48.12119,1.12343 -70.51826,4.26666 -21.79374,1.08962 -42.15153,-9.10407 -63.74923,-9.73513 z"
         style="fill:#e60000;fill-opacity:1;fill-rule:evenodd;stroke:#640000;stroke-width:7.58329296;stroke-linecap:butt;stroke-linejoin:miter;stroke-miterlimit:4;stroke-opacity:1;stroke-dasharray:none" />
      <g
         style="fill:#e6e6e6;fill-opacity:0.33193282"
         inkscape:label="Layer 1"
         id="layer1-9"
         transform="matrix(1.896065,0,0,1.9482253,-271.21101,-184.67053)">
        <path
           inkscape:connector-curvature="0"
           style="fill:#e6e6e6;fill-opacity:0.33193282"
           d="m 380.65625,454.34375 c -1.58288,0.53097 -3.96097,1.43114 -4.53125,2.78125 0.46145,1.57179 -1.80057,2.11595 -2.51493,1.17023 -6.71302,1.00433 -13.77143,4.71338 -16.20382,11.42352 0.20386,2.11708 2.52459,3.78777 1.75,6.03125 -2.80024,-0.36385 -3.0453,-5.23138 -6.28125,-4.3125 -4.41803,3.04119 -8.02575,7.12263 -12.36923,10.23949 -3.35058,3.46797 -7.62446,6.11437 -12.32158,7.19317 -3.84106,2.67835 -5.78813,7.71656 -10.58705,9.06433 -3.86158,1.98889 -9.21318,4.14147 -9.62839,9.09676 0.88441,3.37618 5.60462,3.60139 7.97579,1.70271 6.10853,-2.16094 12.67171,-0.68182 18.64921,1.01604 2.9353,-0.12603 4.73512,-3.03842 4.90625,-5.65625 1.53351,-1.62201 3.74085,0.19347 4.25,1.8125 3.54486,3.54738 11.2438,1.67369 11.87707,-3.51188 -0.40775,-0.97859 0.20444,-3.61522 1.49793,-2.20687 0.51532,1.77945 0.57078,4.08174 2.75,4.6875 3.23484,0.90942 6.07576,-3.1013 4.59375,-6 -0.7514,-1.22877 0.89733,-3.13554 1.65625,-1.375 0.9538,2.15229 2.51215,4.88362 5.34375,4 7.33023,-1.25735 14.80884,-0.46807 21.96875,1.375 1.01783,-0.74235 1.64099,-3.0765 3.25,-2.15625 0.64513,5.39361 6.13582,8.00466 10.75,9.40625 2.57226,1.33126 6.93699,1.94089 8.03125,-1.5625 1.66483,-3.94272 -0.85834,-8.37553 0.96875,-12.28125 2.32293,0.007 1.97504,3.34659 1.78125,4.96875 -0.45712,3.17931 0.0654,8.02499 3.90625,8.6875 3.62299,-0.1556 4.13626,-4.56216 5.125,-7.125 1.57858,1.02621 1.01399,4.7588 3.78125,4.125 3.36631,-1.33072 3.04737,-5.80183 2.94096,-8.80582 -0.10578,-2.07378 -0.0826,-4.27315 0.96529,-6.13168 0.23727,3.94807 -0.10423,7.89649 -0.1875,11.84375 5.95859,3.13402 13.64501,-3.07791 12.65625,-9.5 2.16975,-0.43696 1.72333,2.66104 0.78125,3.71875 -0.87054,3.1308 2.27989,7.18152 5.60563,5.56457 4.28099,-1.03088 6.95805,-4.93084 9.01937,-8.53332 2.18643,0.9958 -0.65153,3.04739 -0.8125,4.4375 -1.13987,4.95364 5.529,9.79269 9.6875,6.4375 4.50371,-0.59054 7.55414,4.93511 12.20419,3.43541 2.47543,-0.3312 4.51639,-2.69489 6.95694,-2.59882 1.78247,1.32189 3.86813,2.77301 6.15137,1.72591 6.14783,-0.42325 11.88295,2.88847 17.89664,2.97355 3.36917,-1.5006 3.40975,-6.9979 0.004,-8.50465 -6.1313,-5.90926 -13.9076,-9.91702 -19.48139,-16.43808 -9.95208,-8.79531 -20.4328,-16.98624 -30.63841,-25.46832 -2.15283,-1.1859 -4.58926,0.0535 -6.46875,0.9375 -1.92818,-1.21707 0.63858,-4.57179 -2.0625,-5.40625 -4.11178,-2.03919 -8.90617,-1.13964 -13.25,-2.34375 -2.67055,-0.46454 -3.12754,2.70747 -4.625,4.03125 -1.72013,-0.34791 0.5576,-4.10547 -1.98386,-3.73706 -3.53315,1.00763 -6.42755,3.55279 -9.98489,4.48706 -2.72524,1.53899 -3.51469,5.2305 -6.20105,6.61521 -3.4481,0.45388 -5.46099,-3.38848 -8.7381,-3.83458 -2.8357,-1.02632 -4.59876,-3.68203 -7.0296,-5.21813 -4.83358,-1.73837 -10.06096,0.47225 -14.96407,-1.07676 -2.8965,-0.49112 -5.85456,-1.85202 -8.81718,-1.20449 z M 394.5,462.625 c -0.0798,0.11211 -0.0798,-0.11211 0,0 z m -42.1875,27.96875 c 0.42347,0.15292 -0.3619,-0.002 0,0 z m 53.90625,6 c 0.0128,0.23244 -0.15998,-0.22557 0,0 z M 312.5625,516.0625 c -3.50374,1.40942 -2.07452,7.15829 1.375,7.59375 8.26165,6.26802 16.63252,12.83021 22.21912,21.72544 3.21871,3.976 7.67696,6.83321 11.03088,10.58706 1.05728,2.34911 3.26586,3.9992 5.6588,4.6588 2.48118,2.68212 4.56705,5.93546 8.07136,7.38701 7.81333,5.1056 15.34235,11.41955 24.60051,13.59256 2.41102,-0.12748 3.25127,-2.95061 3.16933,-4.98212 2.18934,0.11291 0.69986,2.91956 0.75,4.25 0.22354,3.31723 5.41492,5.39822 7.0625,1.96875 1.68837,-1.13775 3.34675,1.11165 3.09375,2.625 2.03719,3.1661 7.79948,2.43486 8.8125,-1.25 3.16756,-1.33762 4.70341,4.31251 7.95127,2.54214 3.76971,-0.87304 7.88971,-1.10636 11.4425,0.58286 5.27081,-0.37003 7.45998,-6.49495 7.26248,-11.0625 0.55845,-1.75873 0.73369,1.18382 0.625,1.75 -0.0387,2.07119 -0.11817,5.91014 2.6698,5.94729 3.05718,-0.58992 5.32992,-4.91982 8.73645,-3.16604 3.79747,0.64707 6.95387,-2.8407 7.8125,-6.25 3.59546,-1.20747 7.88691,-1.62317 10.22333,-5.00289 2.59327,-2.119 4.54281,-4.92183 5.96417,-7.93461 2.23408,-0.0817 5.54802,1.01279 6.50255,-1.81505 9.4592,-9.46302 17.67626,-20.19647 27.79333,-28.97596 4.01709,-2.69974 8.93485,-6.43033 8.64162,-11.77149 -1.92375,-3.09255 -6.35543,-1.62087 -8.39333,0.56614 -8.04659,4.67172 -17.56557,1.87728 -26.30654,2.13194 -4.0436,-0.12794 -8.08044,0.73461 -11.93981,1.69271 -2.98214,-0.47326 -6.70548,-3.26446 -9.28009,-0.40118 -1.75336,2.36334 -4.30709,4.62039 -7.45611,4.02391 -4.81443,0.83767 -9.48462,4.10978 -14.49912,2.23648 -2.56729,-0.5503 -6.31592,-0.63443 -7.21875,2.46875 -0.39227,1.1463 -1.33305,3.75626 -2.7467,2.02303 -1.21137,-1.6723 -3.51136,-3.41951 -5.3783,-1.55428 -3.41741,2.51018 -1.77201,7.22048 -1.20343,10.66051 0.0782,1.47453 -0.0533,3.00547 -0.73407,4.33949 -3.14692,-2.10312 -0.75582,-6.2079 -1.46875,-9.20627 0.017,-2.94665 -1.54499,-7.38265 -5.12506,-6.97647 -2.61488,1.20173 -6.11897,2.47801 -8.4718,0.12359 -4.84509,-1.54724 -8.91045,3.32246 -9.93439,7.5904 -0.75973,1.62532 -3.26444,0.5912 -2.15625,-1.0625 1.1597,-2.57436 4.30206,-5.31876 2.21875,-8.28125 -2.43714,-3.72645 -7.56857,-3.2811 -11.44815,-4.03747 -6.2418,-0.48345 -12.6333,-0.92514 -18.8287,-0.19712 -1.18709,0.59243 -3.65029,2.59811 -4.20245,0.33063 -0.33711,-1.61983 -1.99977,-2.731 -3.4853,-1.74062 -5.56696,1.11695 -11.86088,1.36345 -16.25415,5.42583 -2.96705,0.0699 -1.25568,-4.2962 -3.6875,-5.1875 -4.15062,-3.16942 -10.05995,-2.1176 -14.15476,-5.46207 -2.88675,-1.42239 -6.02084,-2.77675 -9.31399,-2.50668 z m 128.03125,20.15625 c 2.0607,1.11796 2.28216,3.67107 2.90625,5.6875 -2.54921,-0.50345 -3.63166,-3.49005 -3.15625,-5.8125 l 0.24039,0.1202 0.01,0.005 z M 373.53125,559.5 c 0.42347,0.15292 -0.3619,-0.002 0,0 z m 50.84375,9.90625 c 0.75545,3.51004 -0.0138,7.08549 0,10.625 -2.47516,-3.29738 -1.60311,-7.76499 -0.1875,-11.3125 0.0625,0.22917 0.125,0.45833 0.1875,0.6875 z"
           id="path1368"
           sodipodi:nodetypes="ccccssssssssssssssssssssssssssscccsssssssssssssssssssssscccsssssssssssssssssssssssssssssscccsssssscccsssscccsccssccssccssccsssssssssssssssscccsssssssssssssssssssssssssssssssssssssssssssssssssssssssssssssssssssssssssssssscccsscccssscccsssssccssccssccssc" />
      </g>
    </g>
  </g>
</svg>

